<?xml version="1.0" encoding="utf-8"?>
<!-- Generator: Adobe Illustrator 28.0.0, SVG Export Plug-In . SVG Version: 6.00 Build 0)  -->
<svg version="1.1" id="Layer_1" xmlns="http://www.w3.org/2000/svg" xmlns:xlink="http://www.w3.org/1999/xlink" x="0px" y="0px"
	 viewBox="0 0 1920 1080" style="enable-background:new 0 0 1920 1080;" xml:space="preserve">
<style type="text/css">
	.st0{fill:#08403F;}
</style>
<g>
	<g id="_x3C_Grid_Repeat_x3E__00000152947766436305054540000017959749881905451959_">
		<g>
			<path class="st0" d="M177.25,16.36c0,4.85-1.86,9.27-4.9,12.58l-1.1,1.1l-4.75,4.75l-11.2,11.2c-0.64,0.56-1.25,1.17-1.81,1.81
				l0,0c-3.07,3.5-4.94,8.08-4.94,13.1c0,0.43,0.01,0.85,0.04,1.28l-9.62-9.62c0.36-3.52,1.6-6.78,3.48-9.57
				c0.74-1.1,1.59-2.12,2.52-3.06l0.09-0.09l6.36-6.36l3.27-3.27l12.05-12.05c0.17-0.16,0.34-0.33,0.51-0.51
				c1.99-2.11,3.2-4.95,3.2-8.08c0-1.04-0.13-2.06-0.39-3.02c-0.23-0.88-0.56-1.72-0.98-2.51c-0.85-1.6-2.06-2.98-3.52-4.04
				c4.1,1.21,7.52,4,9.54,7.68c0.25,0.46,0.47,0.94,0.68,1.43c0.29,0.69,0.55,1.41,0.75,2.14c0.01,0.05,0.03,0.1,0.04,0.15
				C177.02,12.98,177.25,14.64,177.25,16.36z"/>
			<path class="st0" d="M186.87,42.98l-4.15,4.15l-2.44,2.44l-12.6,12.6h-19.08c0.89-10.42,9.37-18.67,19.9-19.19H186.87z"/>
		</g>
	</g>
	<g id="_x3C_Grid_Repeat_x3E__00000103256087023951695340000001333030878358546089_">
		<g>
			<path class="st0" d="M393.84,45.82c0-4.85,1.86-9.27,4.9-12.58l1.1-1.1l4.75-4.75l11.2-11.2c0.64-0.56,1.25-1.17,1.81-1.81l0,0
				c3.07-3.5,4.94-8.08,4.94-13.1c0-0.43-0.01-0.85-0.04-1.28l9.62,9.62c-0.36,3.52-1.6,6.78-3.48,9.57
				c-0.74,1.1-1.59,2.12-2.52,3.06l-0.09,0.09l-6.36,6.36l-3.27,3.27l-12.05,12.05c-0.17,0.16-0.34,0.33-0.51,0.51
				c-1.99,2.11-3.2,4.95-3.2,8.08c0,1.04,0.13,2.06,0.39,3.02c0.23,0.88,0.56,1.72,0.98,2.51c0.85,1.6,2.06,2.98,3.52,4.04
				c-4.1-1.21-7.52-4-9.54-7.68c-0.25-0.46-0.47-0.94-0.68-1.43c-0.29-0.69-0.55-1.41-0.75-2.14c-0.01-0.05-0.03-0.1-0.04-0.15
				C394.07,49.2,393.84,47.54,393.84,45.82z"/>
			<path class="st0" d="M384.22,19.19l4.15-4.15l2.44-2.44L403.42,0h19.08c-0.89,10.42-9.37,18.67-19.9,19.19H384.22z"/>
		</g>
	</g>
	<g id="_x3C_Grid_Repeat_x3E__00000120537791833711640510000007990639019302815367_">
		<g>
			<path class="st0" d="M667.76,16.36c0,4.85-1.86,9.27-4.9,12.58l-1.1,1.1l-4.75,4.75l-11.2,11.2c-0.64,0.56-1.25,1.17-1.81,1.81
				l0,0c-3.07,3.5-4.94,8.08-4.94,13.1c0,0.43,0.02,0.85,0.04,1.28l-9.62-9.62c0.36-3.52,1.6-6.78,3.48-9.57
				c0.74-1.1,1.59-2.12,2.52-3.06l0.09-0.09l6.36-6.36l3.27-3.27l12.05-12.05c0.17-0.16,0.34-0.33,0.51-0.51
				c1.99-2.11,3.2-4.95,3.2-8.08c0-1.04-0.13-2.06-0.39-3.02c-0.23-0.88-0.56-1.72-0.98-2.51c-0.85-1.6-2.06-2.98-3.52-4.04
				c4.1,1.21,7.52,4,9.54,7.68c0.25,0.46,0.47,0.94,0.68,1.43c0.29,0.69,0.55,1.41,0.75,2.14c0.01,0.05,0.03,0.1,0.04,0.15
				C667.53,12.98,667.76,14.64,667.76,16.36z"/>
			<path class="st0" d="M677.38,42.98l-4.15,4.15l-2.44,2.44l-12.6,12.6H639.1c0.89-10.42,9.37-18.67,19.9-19.19H677.38z"/>
		</g>
	</g>
	<g id="_x3C_Grid_Repeat_x3E__00000046304618826485445580000006541977528118418827_">
		<g>
			<path class="st0" d="M884.35,45.82c0-4.85,1.86-9.27,4.9-12.58l1.1-1.1l4.75-4.75l11.2-11.2c0.64-0.56,1.25-1.17,1.81-1.81l0,0
				c3.07-3.5,4.94-8.08,4.94-13.1c0-0.43-0.01-0.85-0.04-1.28l9.62,9.62c-0.36,3.52-1.6,6.78-3.48,9.57
				c-0.74,1.1-1.59,2.12-2.52,3.06l-0.09,0.09l-6.36,6.36l-3.27,3.27l-12.05,12.05c-0.17,0.16-0.34,0.33-0.51,0.51
				c-1.99,2.11-3.2,4.95-3.2,8.08c0,1.04,0.14,2.06,0.39,3.02c0.23,0.88,0.56,1.72,0.98,2.51c0.85,1.6,2.06,2.98,3.52,4.04
				c-4.1-1.21-7.52-4-9.54-7.68c-0.25-0.46-0.47-0.94-0.68-1.43c-0.29-0.69-0.55-1.41-0.75-2.14c-0.02-0.05-0.03-0.1-0.04-0.15
				C884.59,49.2,884.35,47.54,884.35,45.82z"/>
			<path class="st0" d="M874.73,19.19l4.15-4.15l2.44-2.44L893.93,0h19.08c-0.89,10.42-9.37,18.67-19.9,19.19H874.73z"/>
		</g>
	</g>
	<g id="_x3C_Grid_Repeat_x3E__00000000917828588202795410000009474362595597068162_">
		<g>
			<path class="st0" d="M1158.27,16.36c0,4.85-1.86,9.27-4.9,12.58l-1.1,1.1l-4.75,4.75l-11.2,11.2c-0.64,0.56-1.25,1.17-1.81,1.81
				l0,0c-3.07,3.5-4.94,8.08-4.94,13.1c0,0.43,0.02,0.85,0.04,1.28l-9.62-9.62c0.36-3.52,1.6-6.78,3.48-9.57
				c0.74-1.1,1.59-2.12,2.52-3.06l0.09-0.09l6.36-6.36l3.27-3.27l12.05-12.05c0.17-0.16,0.34-0.33,0.51-0.51
				c1.99-2.11,3.2-4.95,3.2-8.08c0-1.04-0.14-2.06-0.39-3.02c-0.23-0.88-0.56-1.72-0.98-2.51c-0.85-1.6-2.06-2.98-3.52-4.04
				c4.1,1.21,7.52,4,9.54,7.68c0.25,0.46,0.47,0.94,0.68,1.43c0.29,0.69,0.55,1.41,0.75,2.14c0.02,0.05,0.03,0.1,0.04,0.15
				C1158.04,12.98,1158.27,14.64,1158.27,16.36z"/>
			<path class="st0" d="M1167.89,42.98l-4.15,4.15l-2.44,2.44l-12.6,12.6h-19.08c0.89-10.42,9.37-18.67,19.9-19.19H1167.89z"/>
		</g>
	</g>
	<g id="_x3C_Grid_Repeat_x3E__00000053505098843418028670000002521199567943047092_">
		<g>
			<path class="st0" d="M1374.87,45.82c0-4.85,1.86-9.27,4.9-12.58l1.1-1.1l4.75-4.75l11.2-11.2c0.64-0.56,1.25-1.17,1.81-1.81l0,0
				c3.07-3.5,4.94-8.08,4.94-13.1c0-0.43-0.02-0.85-0.04-1.28l9.62,9.62c-0.36,3.52-1.6,6.78-3.48,9.57
				c-0.74,1.1-1.59,2.12-2.52,3.06l-0.09,0.09l-6.36,6.36l-3.27,3.27l-12.05,12.05c-0.17,0.16-0.34,0.33-0.51,0.51
				c-1.99,2.11-3.2,4.95-3.2,8.08c0,1.04,0.13,2.06,0.39,3.02c0.23,0.88,0.56,1.72,0.98,2.51c0.85,1.6,2.06,2.98,3.52,4.04
				c-4.1-1.21-7.52-4-9.54-7.68c-0.25-0.46-0.47-0.94-0.68-1.43c-0.29-0.69-0.55-1.41-0.75-2.14c-0.02-0.05-0.03-0.1-0.04-0.15
				C1375.1,49.2,1374.87,47.54,1374.87,45.82z"/>
			<path class="st0" d="M1365.25,19.19l4.15-4.15l2.44-2.44l12.6-12.6h19.08c-0.89,10.42-9.37,18.67-19.9,19.19H1365.25z"/>
		</g>
	</g>
	<g id="_x3C_Grid_Repeat_x3E__00000172409791780742932430000000849445526911807390_">
		<g>
			<path class="st0" d="M1648.79,16.36c0,4.85-1.86,9.27-4.9,12.58l-1.1,1.1l-4.75,4.75l-11.2,11.2c-0.64,0.56-1.25,1.17-1.81,1.81
				l0,0c-3.07,3.5-4.94,8.08-4.94,13.1c0,0.43,0.02,0.85,0.04,1.28l-9.62-9.62c0.36-3.52,1.6-6.78,3.48-9.57
				c0.74-1.1,1.59-2.12,2.52-3.06l0.09-0.09l6.36-6.36l3.27-3.27l12.05-12.05c0.17-0.16,0.34-0.33,0.51-0.51
				c1.99-2.11,3.2-4.95,3.2-8.08c0-1.04-0.14-2.06-0.39-3.02c-0.23-0.88-0.56-1.72-0.98-2.51c-0.85-1.6-2.06-2.98-3.52-4.04
				c4.1,1.21,7.52,4,9.54,7.68c0.25,0.46,0.47,0.94,0.68,1.43c0.29,0.69,0.55,1.41,0.75,2.14c0.02,0.05,0.03,0.1,0.04,0.15
				C1648.55,12.98,1648.79,14.64,1648.79,16.36z"/>
			<path class="st0" d="M1658.41,42.98l-4.15,4.15l-2.44,2.44l-12.6,12.6h-19.08c0.89-10.42,9.37-18.67,19.9-19.19H1658.41z"/>
		</g>
	</g>
	<g id="_x3C_Grid_Repeat_x3E__00000044876700008816587820000004611302592975461550_">
		<g>
			<path class="st0" d="M1865.38,45.82c0-4.85,1.86-9.27,4.9-12.58l1.1-1.1l4.75-4.75l11.2-11.2c0.64-0.56,1.25-1.17,1.81-1.81l0,0
				c3.07-3.5,4.94-8.08,4.94-13.1c0-0.43-0.02-0.85-0.04-1.28l9.62,9.62c-0.36,3.52-1.6,6.78-3.48,9.57
				c-0.74,1.1-1.59,2.12-2.52,3.06l-0.09,0.09l-6.36,6.36l-3.27,3.27l-12.05,12.05c-0.17,0.16-0.34,0.33-0.51,0.51
				c-1.99,2.11-3.2,4.95-3.2,8.08c0,1.04,0.13,2.06,0.39,3.02c0.23,0.88,0.56,1.72,0.98,2.51c0.85,1.6,2.06,2.98,3.52,4.04
				c-4.1-1.21-7.52-4-9.54-7.68c-0.25-0.46-0.47-0.94-0.68-1.43c-0.29-0.69-0.55-1.41-0.75-2.14c-0.02-0.05-0.03-0.1-0.04-0.15
				C1865.61,49.2,1865.38,47.54,1865.38,45.82z"/>
			<path class="st0" d="M1855.76,19.19l4.15-4.15l2.44-2.44l12.6-12.6h19.08c-0.89,10.42-9.37,18.67-19.9,19.19H1855.76z"/>
		</g>
	</g>
	<g id="_x3C_Grid_Repeat_x3E__00000043415194614065362920000007051794661386903482_">
		<g>
			<path class="st0" d="M54.62,101.17c0,4.85-1.86,9.27-4.9,12.58l-1.1,1.1l-4.75,4.75l-11.2,11.2c-0.64,0.56-1.25,1.17-1.81,1.81
				l0,0c-3.07,3.5-4.94,8.08-4.94,13.1c0,0.43,0.01,0.85,0.04,1.28l-9.62-9.62c0.36-3.52,1.6-6.78,3.48-9.57
				c0.74-1.1,1.59-2.12,2.52-3.06l0.09-0.09l6.36-6.36l3.27-3.27l12.05-12.05c0.17-0.16,0.34-0.33,0.51-0.51
				c1.99-2.11,3.2-4.95,3.2-8.08c0-1.04-0.13-2.06-0.39-3.02c-0.23-0.88-0.56-1.72-0.98-2.51c-0.85-1.6-2.06-2.98-3.52-4.04
				c4.1,1.21,7.52,4,9.54,7.68c0.25,0.46,0.47,0.94,0.68,1.43c0.29,0.69,0.55,1.41,0.75,2.14c0.01,0.05,0.03,0.1,0.04,0.15
				C54.39,97.8,54.62,99.46,54.62,101.17z"/>
			<path class="st0" d="M64.24,127.8l-4.15,4.15l-2.44,2.44l-12.6,12.6H25.96c0.89-10.42,9.37-18.67,19.9-19.19H64.24z"/>
		</g>
	</g>
	<g id="_x3C_Grid_Repeat_x3E__00000096748975243553888860000018441467790665496985_">
		<g>
			<path class="st0" d="M271.21,130.64c0-4.85,1.86-9.27,4.9-12.58l1.1-1.1l4.75-4.75l11.2-11.2c0.64-0.56,1.25-1.17,1.81-1.81l0,0
				c3.07-3.5,4.94-8.08,4.94-13.1c0-0.43-0.01-0.85-0.04-1.28l9.62,9.62c-0.36,3.52-1.6,6.78-3.48,9.57
				c-0.74,1.1-1.59,2.12-2.52,3.06l-0.09,0.09l-6.36,6.36l-3.27,3.27l-12.05,12.05c-0.17,0.16-0.34,0.33-0.51,0.51
				c-1.99,2.11-3.2,4.95-3.2,8.08c0,1.04,0.13,2.06,0.39,3.02c0.23,0.88,0.56,1.72,0.98,2.51c0.85,1.6,2.06,2.98,3.52,4.04
				c-4.1-1.21-7.52-4-9.54-7.68c-0.25-0.46-0.47-0.94-0.68-1.43c-0.29-0.69-0.55-1.41-0.75-2.14c-0.01-0.05-0.03-0.1-0.04-0.15
				C271.45,134.02,271.21,132.35,271.21,130.64z"/>
			<path class="st0" d="M261.59,104.01l4.15-4.15l2.44-2.44l12.6-12.6h19.08c-0.89,10.42-9.37,18.67-19.9,19.19H261.59z"/>
		</g>
	</g>
	<g id="_x3C_Grid_Repeat_x3E__00000134929521146545322960000007952370779174094213_">
		<g>
			<path class="st0" d="M545.13,101.17c0,4.85-1.86,9.27-4.9,12.58l-1.1,1.1l-4.75,4.75l-11.2,11.2c-0.64,0.56-1.25,1.17-1.81,1.81
				l0,0c-3.07,3.5-4.94,8.08-4.94,13.1c0,0.43,0.02,0.85,0.04,1.28l-9.62-9.62c0.36-3.52,1.6-6.78,3.48-9.57
				c0.74-1.1,1.59-2.12,2.52-3.06l0.09-0.09l6.36-6.36l3.27-3.27l12.05-12.05c0.17-0.16,0.34-0.33,0.51-0.51
				c1.99-2.11,3.2-4.95,3.2-8.08c0-1.04-0.13-2.06-0.39-3.02c-0.23-0.88-0.56-1.72-0.98-2.51c-0.85-1.6-2.06-2.98-3.52-4.04
				c4.1,1.21,7.52,4,9.54,7.68c0.25,0.46,0.47,0.94,0.68,1.43c0.29,0.69,0.55,1.41,0.75,2.14c0.02,0.05,0.03,0.1,0.04,0.15
				C544.9,97.8,545.13,99.46,545.13,101.17z"/>
			<path class="st0" d="M554.75,127.8l-4.16,4.15l-2.44,2.44l-12.6,12.6h-19.08c0.89-10.42,9.37-18.67,19.9-19.19H554.75z"/>
		</g>
	</g>
	<g id="_x3C_Grid_Repeat_x3E__00000018227518569136466860000015854211355854550954_">
		<g>
			<path class="st0" d="M761.73,130.64c0-4.85,1.86-9.27,4.9-12.58l1.1-1.1l4.75-4.75l11.2-11.2c0.64-0.56,1.25-1.17,1.81-1.81l0,0
				c3.07-3.5,4.94-8.08,4.94-13.1c0-0.43-0.02-0.85-0.04-1.28l9.62,9.62c-0.36,3.52-1.6,6.78-3.48,9.57
				c-0.74,1.1-1.59,2.12-2.52,3.06l-0.09,0.09l-6.36,6.36l-3.27,3.27l-12.05,12.05c-0.17,0.16-0.34,0.33-0.51,0.51
				c-1.99,2.11-3.2,4.95-3.2,8.08c0,1.04,0.13,2.06,0.39,3.02c0.23,0.88,0.56,1.72,0.98,2.51c0.85,1.6,2.06,2.98,3.52,4.04
				c-4.1-1.21-7.52-4-9.54-7.68c-0.25-0.46-0.47-0.94-0.68-1.43c-0.29-0.69-0.55-1.41-0.75-2.14c-0.01-0.05-0.03-0.1-0.04-0.15
				C761.96,134.02,761.73,132.35,761.73,130.64z"/>
			<path class="st0" d="M752.11,104.01l4.15-4.15l2.44-2.44l12.6-12.6h19.08c-0.89,10.42-9.37,18.67-19.9,19.19H752.11z"/>
		</g>
	</g>
	<g id="_x3C_Grid_Repeat_x3E__00000003795877272058362740000004011085692067263137_">
		<g>
			<path class="st0" d="M1035.65,101.17c0,4.85-1.86,9.27-4.9,12.58l-1.1,1.1l-4.75,4.75l-11.2,11.2c-0.64,0.56-1.25,1.17-1.81,1.81
				l0,0c-3.07,3.5-4.94,8.08-4.94,13.1c0,0.43,0.01,0.85,0.04,1.28l-9.62-9.62c0.36-3.52,1.6-6.78,3.48-9.57
				c0.74-1.1,1.59-2.12,2.52-3.06l0.09-0.09l6.36-6.36l3.27-3.27l12.05-12.05c0.18-0.16,0.34-0.33,0.51-0.51
				c1.99-2.11,3.2-4.95,3.2-8.08c0-1.04-0.13-2.06-0.39-3.02c-0.23-0.88-0.56-1.72-0.98-2.51c-0.85-1.6-2.06-2.98-3.52-4.04
				c4.1,1.21,7.52,4,9.54,7.68c0.25,0.46,0.47,0.94,0.68,1.43c0.29,0.69,0.55,1.41,0.75,2.14c0.02,0.05,0.03,0.1,0.04,0.15
				C1035.41,97.8,1035.65,99.46,1035.65,101.17z"/>
			<path class="st0" d="M1045.27,127.8l-4.15,4.15l-2.44,2.44l-12.6,12.6h-19.08c0.89-10.42,9.37-18.67,19.9-19.19H1045.27z"/>
		</g>
	</g>
	<g id="_x3C_Grid_Repeat_x3E__00000149367711454293471240000000162751975401487289_">
		<g>
			<path class="st0" d="M1252.24,130.64c0-4.85,1.86-9.27,4.9-12.58l1.1-1.1l4.75-4.75l11.2-11.2c0.64-0.56,1.25-1.17,1.81-1.81l0,0
				c3.07-3.5,4.94-8.08,4.94-13.1c0-0.43-0.02-0.85-0.04-1.28l9.62,9.62c-0.36,3.52-1.6,6.78-3.48,9.57
				c-0.74,1.1-1.59,2.12-2.52,3.06l-0.09,0.09l-6.36,6.36l-3.27,3.27l-12.05,12.05c-0.17,0.16-0.34,0.33-0.51,0.51
				c-1.99,2.11-3.2,4.95-3.2,8.08c0,1.04,0.14,2.06,0.39,3.02c0.23,0.88,0.56,1.72,0.98,2.51c0.85,1.6,2.06,2.98,3.52,4.04
				c-4.1-1.21-7.52-4-9.54-7.68c-0.25-0.46-0.47-0.94-0.68-1.43c-0.29-0.69-0.55-1.41-0.75-2.14c-0.02-0.05-0.03-0.1-0.04-0.15
				C1252.47,134.02,1252.24,132.35,1252.24,130.64z"/>
			<path class="st0" d="M1242.62,104.01l4.15-4.15l2.44-2.44l12.6-12.6h19.08c-0.89,10.42-9.37,18.67-19.9,19.19H1242.62z"/>
		</g>
	</g>
	<g id="_x3C_Grid_Repeat_x3E__00000006672159291533327980000008768043560128699071_">
		<g>
			<path class="st0" d="M1526.16,101.17c0,4.85-1.86,9.27-4.9,12.58l-1.1,1.1l-4.75,4.75l-11.2,11.2c-0.64,0.56-1.25,1.17-1.81,1.81
				l0,0c-3.07,3.5-4.94,8.08-4.94,13.1c0,0.43,0.02,0.85,0.04,1.28l-9.62-9.62c0.36-3.52,1.6-6.78,3.48-9.57
				c0.74-1.1,1.59-2.12,2.52-3.06l0.09-0.09l6.36-6.36l3.27-3.27l12.05-12.05c0.18-0.16,0.34-0.33,0.51-0.51
				c1.99-2.11,3.2-4.95,3.2-8.08c0-1.04-0.13-2.06-0.39-3.02c-0.23-0.88-0.56-1.72-0.98-2.51c-0.85-1.6-2.06-2.98-3.52-4.04
				c4.1,1.21,7.52,4,9.54,7.68c0.25,0.46,0.47,0.94,0.68,1.43c0.29,0.69,0.55,1.41,0.75,2.14c0.02,0.05,0.03,0.1,0.04,0.15
				C1525.93,97.8,1526.16,99.46,1526.16,101.17z"/>
			<path class="st0" d="M1535.78,127.8l-4.15,4.15l-2.44,2.44l-12.6,12.6h-19.08c0.89-10.42,9.37-18.67,19.9-19.19H1535.78z"/>
		</g>
	</g>
	<g id="_x3C_Grid_Repeat_x3E__00000004509457296236807900000010160563728413519250_">
		<g>
			<path class="st0" d="M1742.75,130.64c0-4.85,1.86-9.27,4.9-12.58l1.1-1.1l4.75-4.75l11.2-11.2c0.64-0.56,1.25-1.17,1.81-1.81l0,0
				c3.07-3.5,4.94-8.08,4.94-13.1c0-0.43-0.02-0.85-0.04-1.28l9.62,9.62c-0.36,3.52-1.6,6.78-3.48,9.57
				c-0.74,1.1-1.59,2.12-2.52,3.06l-0.09,0.09l-6.36,6.36l-3.27,3.27l-12.05,12.05c-0.17,0.16-0.34,0.33-0.51,0.51
				c-1.99,2.11-3.2,4.95-3.2,8.08c0,1.04,0.14,2.06,0.39,3.02c0.23,0.88,0.56,1.72,0.98,2.51c0.85,1.6,2.06,2.98,3.52,4.04
				c-4.1-1.21-7.52-4-9.54-7.68c-0.25-0.46-0.47-0.94-0.68-1.43c-0.29-0.69-0.55-1.41-0.75-2.14c-0.02-0.05-0.03-0.1-0.04-0.15
				C1742.98,134.02,1742.75,132.35,1742.75,130.64z"/>
			<path class="st0" d="M1733.13,104.01l4.16-4.15l2.44-2.44l12.6-12.6h19.08c-0.89,10.42-9.37,18.67-19.9,19.19H1733.13z"/>
		</g>
	</g>
	<g id="_x3C_Grid_Repeat_x3E__00000085940954102841132440000000728459831457601976_">
		<g>
			<path class="st0" d="M177.25,185.99c0,4.85-1.86,9.27-4.9,12.58l-1.1,1.1l-4.75,4.75l-11.2,11.2c-0.64,0.56-1.25,1.17-1.81,1.81
				l0,0c-3.07,3.5-4.94,8.08-4.94,13.1c0,0.43,0.01,0.85,0.04,1.28l-9.62-9.62c0.36-3.52,1.6-6.78,3.48-9.57
				c0.74-1.1,1.59-2.12,2.52-3.06l0.09-0.09l6.36-6.36l3.27-3.27l12.05-12.05c0.17-0.16,0.34-0.33,0.51-0.51
				c1.99-2.11,3.2-4.95,3.2-8.08c0-1.04-0.13-2.06-0.39-3.02c-0.23-0.88-0.56-1.72-0.98-2.51c-0.85-1.6-2.06-2.98-3.52-4.04
				c4.1,1.21,7.52,4,9.54,7.68c0.25,0.46,0.47,0.94,0.68,1.43c0.29,0.69,0.55,1.41,0.75,2.14c0.01,0.05,0.03,0.1,0.04,0.15
				C177.02,182.62,177.25,184.28,177.25,185.99z"/>
			<path class="st0" d="M186.87,212.62l-4.15,4.15l-2.44,2.44l-12.6,12.6h-19.08c0.89-10.42,9.37-18.67,19.9-19.19H186.87z"/>
		</g>
	</g>
	<g id="_x3C_Grid_Repeat_x3E__00000067933661840138915060000011497898579150072213_">
		<g>
			<path class="st0" d="M393.84,215.46c0-4.85,1.86-9.27,4.9-12.58l1.1-1.1l4.75-4.75l11.2-11.2c0.64-0.56,1.25-1.17,1.81-1.81l0,0
				c3.07-3.5,4.94-8.08,4.94-13.1c0-0.43-0.01-0.85-0.04-1.28l9.62,9.62c-0.36,3.52-1.6,6.78-3.48,9.57
				c-0.74,1.1-1.59,2.12-2.52,3.06l-0.09,0.09l-6.36,6.36l-3.27,3.27l-12.05,12.05c-0.17,0.16-0.34,0.33-0.51,0.51
				c-1.99,2.11-3.2,4.95-3.2,8.08c0,1.04,0.13,2.06,0.39,3.02c0.23,0.88,0.56,1.72,0.98,2.51c0.85,1.6,2.06,2.98,3.52,4.04
				c-4.1-1.21-7.52-4-9.54-7.68c-0.25-0.46-0.47-0.94-0.68-1.43c-0.29-0.69-0.55-1.41-0.75-2.14c-0.01-0.05-0.03-0.1-0.04-0.15
				C394.07,218.83,393.84,217.17,393.84,215.46z"/>
			<path class="st0" d="M384.22,188.83l4.15-4.15l2.44-2.44l12.6-12.6h19.08c-0.89,10.42-9.37,18.67-19.9,19.19H384.22z"/>
		</g>
	</g>
	<g id="_x3C_Grid_Repeat_x3E__00000161610617293598737320000014474148452332053922_">
		<g>
			<path class="st0" d="M667.76,185.99c0,4.85-1.86,9.27-4.9,12.58l-1.1,1.1l-4.75,4.75l-11.2,11.2c-0.64,0.56-1.25,1.17-1.81,1.81
				l0,0c-3.07,3.5-4.94,8.08-4.94,13.1c0,0.43,0.02,0.85,0.04,1.28l-9.62-9.62c0.36-3.52,1.6-6.78,3.48-9.57
				c0.74-1.1,1.59-2.12,2.52-3.06l0.09-0.09l6.36-6.36l3.27-3.27l12.05-12.05c0.17-0.16,0.34-0.33,0.51-0.51
				c1.99-2.11,3.2-4.95,3.2-8.08c0-1.04-0.13-2.06-0.39-3.02c-0.23-0.88-0.56-1.72-0.98-2.51c-0.85-1.6-2.06-2.98-3.52-4.04
				c4.1,1.21,7.52,4,9.54,7.68c0.25,0.46,0.47,0.94,0.68,1.43c0.29,0.69,0.55,1.41,0.75,2.14c0.01,0.05,0.03,0.1,0.04,0.15
				C667.53,182.62,667.76,184.28,667.76,185.99z"/>
			<path class="st0" d="M677.38,212.62l-4.15,4.15l-2.44,2.44l-12.6,12.6H639.1c0.89-10.42,9.37-18.67,19.9-19.19H677.38z"/>
		</g>
	</g>
	<g id="_x3C_Grid_Repeat_x3E__00000127039642550585984090000011390446028306683290_">
		<g>
			<path class="st0" d="M884.35,215.46c0-4.85,1.86-9.27,4.9-12.58l1.1-1.1l4.75-4.75l11.2-11.2c0.64-0.56,1.25-1.17,1.81-1.81l0,0
				c3.07-3.5,4.94-8.08,4.94-13.1c0-0.43-0.01-0.85-0.04-1.28l9.62,9.62c-0.36,3.52-1.6,6.78-3.48,9.57
				c-0.74,1.1-1.59,2.12-2.52,3.06l-0.09,0.09l-6.36,6.36l-3.27,3.27l-12.05,12.05c-0.17,0.16-0.34,0.33-0.51,0.51
				c-1.99,2.11-3.2,4.95-3.2,8.08c0,1.04,0.14,2.06,0.39,3.02c0.23,0.88,0.56,1.72,0.98,2.51c0.85,1.6,2.06,2.98,3.52,4.04
				c-4.1-1.21-7.52-4-9.54-7.68c-0.25-0.46-0.47-0.94-0.68-1.43c-0.29-0.69-0.55-1.41-0.75-2.14c-0.02-0.05-0.03-0.1-0.04-0.15
				C884.59,218.83,884.35,217.17,884.35,215.46z"/>
			<path class="st0" d="M874.73,188.83l4.15-4.15l2.44-2.44l12.6-12.6h19.08c-0.89,10.42-9.37,18.67-19.9,19.19H874.73z"/>
		</g>
	</g>
	<g id="_x3C_Grid_Repeat_x3E__00000084529132665650674990000017168206588250909602_">
		<g>
			<path class="st0" d="M1158.27,185.99c0,4.85-1.86,9.27-4.9,12.58l-1.1,1.1l-4.75,4.75l-11.2,11.2c-0.64,0.56-1.25,1.17-1.81,1.81
				l0,0c-3.07,3.5-4.94,8.08-4.94,13.1c0,0.43,0.02,0.85,0.04,1.28l-9.62-9.62c0.36-3.52,1.6-6.78,3.48-9.57
				c0.74-1.1,1.59-2.12,2.52-3.06l0.09-0.09l6.36-6.36l3.27-3.27l12.05-12.05c0.17-0.16,0.34-0.33,0.51-0.51
				c1.99-2.11,3.2-4.95,3.2-8.08c0-1.04-0.14-2.06-0.39-3.02c-0.23-0.88-0.56-1.72-0.98-2.51c-0.85-1.6-2.06-2.98-3.52-4.04
				c4.1,1.21,7.52,4,9.54,7.68c0.25,0.46,0.47,0.94,0.68,1.43c0.29,0.69,0.55,1.41,0.75,2.14c0.02,0.05,0.03,0.1,0.04,0.15
				C1158.04,182.62,1158.27,184.28,1158.27,185.99z"/>
			<path class="st0" d="M1167.89,212.62l-4.15,4.15l-2.44,2.44l-12.6,12.6h-19.08c0.89-10.42,9.37-18.67,19.9-19.19H1167.89z"/>
		</g>
	</g>
	<g id="_x3C_Grid_Repeat_x3E__00000139984251054402468960000014190913436231213989_">
		<g>
			<path class="st0" d="M1374.87,215.46c0-4.85,1.86-9.27,4.9-12.58l1.1-1.1l4.75-4.75l11.2-11.2c0.64-0.56,1.25-1.17,1.81-1.81l0,0
				c3.07-3.5,4.94-8.08,4.94-13.1c0-0.43-0.02-0.85-0.04-1.28l9.62,9.62c-0.36,3.52-1.6,6.78-3.48,9.57
				c-0.74,1.1-1.59,2.12-2.52,3.06l-0.09,0.09l-6.36,6.36l-3.27,3.27l-12.05,12.05c-0.17,0.16-0.34,0.33-0.51,0.51
				c-1.99,2.11-3.2,4.95-3.2,8.08c0,1.04,0.13,2.06,0.39,3.02c0.23,0.88,0.56,1.72,0.98,2.51c0.85,1.6,2.06,2.98,3.52,4.04
				c-4.1-1.21-7.52-4-9.54-7.68c-0.25-0.46-0.47-0.94-0.68-1.43c-0.29-0.69-0.55-1.41-0.75-2.14c-0.02-0.05-0.03-0.1-0.04-0.15
				C1375.1,218.83,1374.87,217.17,1374.87,215.46z"/>
			<path class="st0" d="M1365.25,188.83l4.15-4.15l2.44-2.44l12.6-12.6h19.08c-0.89,10.42-9.37,18.67-19.9,19.19H1365.25z"/>
		</g>
	</g>
	<g id="_x3C_Grid_Repeat_x3E__00000070813270633581506020000009167473573127282060_">
		<g>
			<path class="st0" d="M1648.79,185.99c0,4.85-1.86,9.27-4.9,12.58l-1.1,1.1l-4.75,4.75l-11.2,11.2c-0.64,0.56-1.25,1.17-1.81,1.81
				l0,0c-3.07,3.5-4.94,8.08-4.94,13.1c0,0.43,0.02,0.85,0.04,1.28l-9.62-9.62c0.36-3.52,1.6-6.78,3.48-9.57
				c0.74-1.1,1.59-2.12,2.52-3.06l0.09-0.09l6.36-6.36l3.27-3.27l12.05-12.05c0.17-0.16,0.34-0.33,0.51-0.51
				c1.99-2.11,3.2-4.95,3.2-8.08c0-1.04-0.14-2.06-0.39-3.02c-0.23-0.88-0.56-1.72-0.98-2.51c-0.85-1.6-2.06-2.98-3.52-4.04
				c4.1,1.21,7.52,4,9.54,7.68c0.25,0.46,0.47,0.94,0.68,1.43c0.29,0.69,0.55,1.41,0.75,2.14c0.02,0.05,0.03,0.1,0.04,0.15
				C1648.55,182.62,1648.79,184.28,1648.79,185.99z"/>
			<path class="st0" d="M1658.41,212.62l-4.15,4.15l-2.44,2.44l-12.6,12.6h-19.08c0.89-10.42,9.37-18.67,19.9-19.19H1658.41z"/>
		</g>
	</g>
	<g id="_x3C_Grid_Repeat_x3E__00000046315478971493361080000010081748860330504071_">
		<g>
			<path class="st0" d="M1865.38,215.46c0-4.85,1.86-9.27,4.9-12.58l1.1-1.1l4.75-4.75l11.2-11.2c0.64-0.56,1.25-1.17,1.81-1.81l0,0
				c3.07-3.5,4.94-8.08,4.94-13.1c0-0.43-0.02-0.85-0.04-1.28l9.62,9.62c-0.36,3.52-1.6,6.78-3.48,9.57
				c-0.74,1.1-1.59,2.12-2.52,3.06l-0.09,0.09l-6.36,6.36l-3.27,3.27l-12.05,12.05c-0.17,0.16-0.34,0.33-0.51,0.51
				c-1.99,2.11-3.2,4.95-3.2,8.08c0,1.04,0.13,2.06,0.39,3.02c0.23,0.88,0.56,1.72,0.98,2.51c0.85,1.6,2.06,2.98,3.52,4.04
				c-4.1-1.21-7.52-4-9.54-7.68c-0.25-0.46-0.47-0.94-0.68-1.43c-0.29-0.69-0.55-1.41-0.75-2.14c-0.02-0.05-0.03-0.1-0.04-0.15
				C1865.61,218.83,1865.38,217.17,1865.38,215.46z"/>
			<path class="st0" d="M1855.76,188.83l4.15-4.15l2.44-2.44l12.6-12.6h19.08c-0.89,10.42-9.37,18.67-19.9,19.19H1855.76z"/>
		</g>
	</g>
	<g id="_x3C_Grid_Repeat_x3E__00000057147148008627473040000015277880584290808198_">
		<g>
			<path class="st0" d="M54.62,270.81c0,4.85-1.86,9.27-4.9,12.58l-1.1,1.1l-4.75,4.75l-11.2,11.2c-0.64,0.56-1.25,1.17-1.81,1.81
				l0,0c-3.07,3.5-4.94,8.08-4.94,13.1c0,0.43,0.01,0.85,0.04,1.28l-9.62-9.62c0.36-3.52,1.6-6.78,3.48-9.57
				c0.74-1.1,1.59-2.12,2.52-3.06l0.09-0.09l6.36-6.36l3.27-3.27l12.05-12.05c0.17-0.16,0.34-0.33,0.51-0.51
				c1.99-2.11,3.2-4.95,3.2-8.08c0-1.04-0.13-2.06-0.39-3.02c-0.23-0.88-0.56-1.72-0.98-2.51c-0.85-1.6-2.06-2.98-3.52-4.04
				c4.1,1.21,7.52,4,9.54,7.68c0.25,0.46,0.47,0.94,0.68,1.43c0.29,0.69,0.55,1.41,0.75,2.14c0.01,0.05,0.03,0.1,0.04,0.15
				C54.39,267.43,54.62,269.1,54.62,270.81z"/>
			<path class="st0" d="M64.24,297.44l-4.15,4.15l-2.44,2.44l-12.6,12.6H25.96c0.89-10.42,9.37-18.67,19.9-19.19H64.24z"/>
		</g>
	</g>
	<g id="_x3C_Grid_Repeat_x3E__00000022556045639136317990000015085936093161482908_">
		<g>
			<path class="st0" d="M271.21,300.28c0-4.85,1.86-9.27,4.9-12.58l1.1-1.1l4.75-4.75l11.2-11.2c0.64-0.56,1.25-1.17,1.81-1.81l0,0
				c3.07-3.5,4.94-8.08,4.94-13.1c0-0.43-0.01-0.85-0.04-1.28l9.62,9.62c-0.36,3.52-1.6,6.78-3.48,9.57
				c-0.74,1.1-1.59,2.12-2.52,3.06l-0.09,0.09l-6.36,6.36l-3.27,3.27l-12.05,12.05c-0.17,0.16-0.34,0.33-0.51,0.51
				c-1.99,2.11-3.2,4.95-3.2,8.08c0,1.04,0.13,2.06,0.39,3.02c0.23,0.88,0.56,1.72,0.98,2.51c0.85,1.6,2.06,2.98,3.52,4.04
				c-4.1-1.21-7.52-4-9.54-7.68c-0.25-0.46-0.47-0.94-0.68-1.43c-0.29-0.69-0.55-1.41-0.75-2.14c-0.01-0.05-0.03-0.1-0.04-0.15
				C271.45,303.65,271.21,301.99,271.21,300.28z"/>
			<path class="st0" d="M261.59,273.65l4.15-4.15l2.44-2.44l12.6-12.6h19.08c-0.89,10.42-9.37,18.67-19.9,19.19H261.59z"/>
		</g>
	</g>
	<g id="_x3C_Grid_Repeat_x3E__00000153706381516883193250000009283209416285343884_">
		<g>
			<path class="st0" d="M545.13,270.81c0,4.85-1.86,9.27-4.9,12.58l-1.1,1.1l-4.75,4.75l-11.2,11.2c-0.64,0.56-1.25,1.17-1.81,1.81
				l0,0c-3.07,3.5-4.94,8.08-4.94,13.1c0,0.43,0.02,0.85,0.04,1.28l-9.62-9.62c0.36-3.52,1.6-6.78,3.48-9.57
				c0.74-1.1,1.59-2.12,2.52-3.06l0.09-0.09l6.36-6.36l3.27-3.27l12.05-12.05c0.17-0.16,0.34-0.33,0.51-0.51
				c1.99-2.11,3.2-4.95,3.2-8.08c0-1.04-0.13-2.06-0.39-3.02c-0.23-0.88-0.56-1.72-0.98-2.51c-0.85-1.6-2.06-2.98-3.52-4.04
				c4.1,1.21,7.52,4,9.54,7.68c0.25,0.46,0.47,0.94,0.68,1.43c0.29,0.69,0.55,1.41,0.75,2.14c0.02,0.05,0.03,0.1,0.04,0.15
				C544.9,267.43,545.13,269.1,545.13,270.81z"/>
			<path class="st0" d="M554.75,297.44l-4.16,4.15l-2.44,2.44l-12.6,12.6h-19.08c0.89-10.42,9.37-18.67,19.9-19.19H554.75z"/>
		</g>
	</g>
	<g id="_x3C_Grid_Repeat_x3E__00000041263506939446617680000011357043726493627310_">
		<g>
			<path class="st0" d="M761.73,300.28c0-4.85,1.86-9.27,4.9-12.58l1.1-1.1l4.75-4.75l11.2-11.2c0.64-0.56,1.25-1.17,1.81-1.81l0,0
				c3.07-3.5,4.94-8.08,4.94-13.1c0-0.43-0.02-0.85-0.04-1.28l9.62,9.62c-0.36,3.52-1.6,6.78-3.48,9.57
				c-0.74,1.1-1.59,2.12-2.52,3.06l-0.09,0.09l-6.36,6.36l-3.27,3.27l-12.05,12.05c-0.17,0.16-0.34,0.33-0.51,0.51
				c-1.99,2.11-3.2,4.95-3.2,8.08c0,1.04,0.13,2.06,0.39,3.02c0.23,0.88,0.56,1.72,0.98,2.51c0.85,1.6,2.06,2.98,3.52,4.04
				c-4.1-1.21-7.52-4-9.54-7.68c-0.25-0.46-0.47-0.94-0.68-1.43c-0.29-0.69-0.55-1.41-0.75-2.14c-0.01-0.05-0.03-0.1-0.04-0.15
				C761.96,303.65,761.73,301.99,761.73,300.28z"/>
			<path class="st0" d="M752.11,273.65l4.15-4.15l2.44-2.44l12.6-12.6h19.08c-0.89,10.42-9.37,18.67-19.9,19.19H752.11z"/>
		</g>
	</g>
	<g id="_x3C_Grid_Repeat_x3E__00000009586731080811596390000014211933971755531401_">
		<g>
			<path class="st0" d="M1035.65,270.81c0,4.85-1.86,9.27-4.9,12.58l-1.1,1.1l-4.75,4.75l-11.2,11.2c-0.64,0.56-1.25,1.17-1.81,1.81
				l0,0c-3.07,3.5-4.94,8.08-4.94,13.1c0,0.43,0.01,0.85,0.04,1.28l-9.62-9.62c0.36-3.52,1.6-6.78,3.48-9.57
				c0.74-1.1,1.59-2.12,2.52-3.06l0.09-0.09l6.36-6.36l3.27-3.27l12.05-12.05c0.18-0.16,0.34-0.33,0.51-0.51
				c1.99-2.11,3.2-4.95,3.2-8.08c0-1.04-0.13-2.06-0.39-3.02c-0.23-0.88-0.56-1.72-0.98-2.51c-0.85-1.6-2.06-2.98-3.52-4.04
				c4.1,1.21,7.52,4,9.54,7.68c0.25,0.46,0.47,0.94,0.68,1.43c0.29,0.69,0.55,1.41,0.75,2.14c0.02,0.05,0.03,0.1,0.04,0.15
				C1035.41,267.43,1035.65,269.1,1035.65,270.81z"/>
			<path class="st0" d="M1045.27,297.44l-4.15,4.15l-2.44,2.44l-12.6,12.6h-19.08c0.89-10.42,9.37-18.67,19.9-19.19H1045.27z"/>
		</g>
	</g>
	<g id="_x3C_Grid_Repeat_x3E__00000020400600902761461580000016752834200127992971_">
		<g>
			<path class="st0" d="M1252.24,300.28c0-4.85,1.86-9.27,4.9-12.58l1.1-1.1l4.75-4.75l11.2-11.2c0.64-0.56,1.25-1.17,1.81-1.81l0,0
				c3.07-3.5,4.94-8.08,4.94-13.1c0-0.43-0.02-0.85-0.04-1.28l9.62,9.62c-0.36,3.52-1.6,6.78-3.48,9.57
				c-0.74,1.1-1.59,2.12-2.52,3.06l-0.09,0.09l-6.36,6.36l-3.27,3.27l-12.05,12.05c-0.17,0.16-0.34,0.33-0.51,0.51
				c-1.99,2.11-3.2,4.95-3.2,8.08c0,1.04,0.14,2.06,0.39,3.02c0.23,0.88,0.56,1.72,0.98,2.51c0.85,1.6,2.06,2.98,3.52,4.04
				c-4.1-1.21-7.52-4-9.54-7.68c-0.25-0.46-0.47-0.94-0.68-1.43c-0.29-0.69-0.55-1.41-0.75-2.14c-0.02-0.05-0.03-0.1-0.04-0.15
				C1252.47,303.65,1252.24,301.99,1252.24,300.28z"/>
			<path class="st0" d="M1242.62,273.65l4.15-4.15l2.44-2.44l12.6-12.6h19.08c-0.89,10.42-9.37,18.67-19.9,19.19H1242.62z"/>
		</g>
	</g>
	<g id="_x3C_Grid_Repeat_x3E__00000117660936377961079590000013845356120682930833_">
		<g>
			<path class="st0" d="M1526.16,270.81c0,4.85-1.86,9.27-4.9,12.58l-1.1,1.1l-4.75,4.75l-11.2,11.2c-0.64,0.56-1.25,1.17-1.81,1.81
				l0,0c-3.07,3.5-4.94,8.08-4.94,13.1c0,0.43,0.02,0.85,0.04,1.28l-9.62-9.62c0.36-3.52,1.6-6.78,3.48-9.57
				c0.74-1.1,1.59-2.12,2.52-3.06l0.09-0.09l6.36-6.36l3.27-3.27l12.05-12.05c0.18-0.16,0.34-0.33,0.51-0.51
				c1.99-2.11,3.2-4.95,3.2-8.08c0-1.04-0.13-2.06-0.39-3.02c-0.23-0.88-0.56-1.72-0.98-2.51c-0.85-1.6-2.06-2.98-3.52-4.04
				c4.1,1.21,7.52,4,9.54,7.68c0.25,0.46,0.47,0.94,0.68,1.43c0.29,0.69,0.55,1.41,0.75,2.14c0.02,0.05,0.03,0.1,0.04,0.15
				C1525.93,267.43,1526.16,269.1,1526.16,270.81z"/>
			<path class="st0" d="M1535.78,297.44l-4.15,4.15l-2.44,2.44l-12.6,12.6h-19.08c0.89-10.42,9.37-18.67,19.9-19.19H1535.78z"/>
		</g>
	</g>
	<g id="_x3C_Grid_Repeat_x3E__00000025402192668831855440000015963985529624721066_">
		<g>
			<path class="st0" d="M1742.75,300.28c0-4.85,1.86-9.27,4.9-12.58l1.1-1.1l4.75-4.75l11.2-11.2c0.64-0.56,1.25-1.17,1.81-1.81l0,0
				c3.07-3.5,4.94-8.08,4.94-13.1c0-0.43-0.02-0.85-0.04-1.28l9.62,9.62c-0.36,3.52-1.6,6.78-3.48,9.57
				c-0.74,1.1-1.59,2.12-2.52,3.06l-0.09,0.09l-6.36,6.36l-3.27,3.27l-12.05,12.05c-0.17,0.16-0.34,0.33-0.51,0.51
				c-1.99,2.11-3.2,4.95-3.2,8.08c0,1.04,0.14,2.06,0.39,3.02c0.23,0.88,0.56,1.72,0.98,2.51c0.85,1.6,2.06,2.98,3.52,4.04
				c-4.1-1.21-7.52-4-9.54-7.68c-0.25-0.46-0.47-0.94-0.68-1.43c-0.29-0.69-0.55-1.41-0.75-2.14c-0.02-0.05-0.03-0.1-0.04-0.15
				C1742.98,303.65,1742.75,301.99,1742.75,300.28z"/>
			<path class="st0" d="M1733.13,273.65l4.16-4.15l2.44-2.44l12.6-12.6h19.08c-0.89,10.42-9.37,18.67-19.9,19.19H1733.13z"/>
		</g>
	</g>
	<g id="_x3C_Grid_Repeat_x3E__00000005985307716218767000000005721896819640110990_">
		<g>
			<path class="st0" d="M177.25,355.63c0,4.85-1.86,9.27-4.9,12.58l-1.1,1.1l-4.75,4.75l-11.2,11.2c-0.64,0.56-1.25,1.17-1.81,1.81
				l0,0c-3.07,3.5-4.94,8.08-4.94,13.1c0,0.43,0.01,0.85,0.04,1.28l-9.62-9.62c0.36-3.52,1.6-6.78,3.48-9.57
				c0.74-1.1,1.59-2.12,2.52-3.06l0.09-0.09l6.36-6.36l3.27-3.27l12.05-12.05c0.17-0.16,0.34-0.33,0.51-0.51
				c1.99-2.11,3.2-4.95,3.2-8.08c0-1.04-0.13-2.06-0.39-3.02c-0.23-0.88-0.56-1.72-0.98-2.51c-0.85-1.6-2.06-2.98-3.52-4.04
				c4.1,1.21,7.52,4,9.54,7.68c0.25,0.46,0.47,0.94,0.68,1.43c0.29,0.69,0.55,1.41,0.75,2.14c0.01,0.05,0.03,0.1,0.04,0.15
				C177.02,352.25,177.25,353.91,177.25,355.63z"/>
			<path class="st0" d="M186.87,382.26l-4.15,4.15l-2.44,2.44l-12.6,12.6h-19.08c0.89-10.42,9.37-18.67,19.9-19.19H186.87z"/>
		</g>
	</g>
	<g id="_x3C_Grid_Repeat_x3E__00000042717734399928993980000007576186332848487555_">
		<g>
			<path class="st0" d="M393.84,385.09c0-4.85,1.86-9.27,4.9-12.58l1.1-1.1l4.75-4.75l11.2-11.2c0.64-0.56,1.25-1.17,1.81-1.81l0,0
				c3.07-3.5,4.94-8.08,4.94-13.1c0-0.43-0.01-0.85-0.04-1.28l9.62,9.62c-0.36,3.52-1.6,6.78-3.48,9.57
				c-0.74,1.1-1.59,2.12-2.52,3.06l-0.09,0.09l-6.36,6.36l-3.27,3.27l-12.05,12.05c-0.17,0.16-0.34,0.33-0.51,0.51
				c-1.99,2.11-3.2,4.95-3.2,8.08c0,1.04,0.13,2.06,0.39,3.02c0.23,0.88,0.56,1.72,0.98,2.51c0.85,1.6,2.06,2.98,3.52,4.04
				c-4.1-1.21-7.52-4-9.54-7.68c-0.25-0.46-0.47-0.94-0.68-1.43c-0.29-0.69-0.55-1.41-0.75-2.14c-0.01-0.05-0.03-0.1-0.04-0.15
				C394.07,388.47,393.84,386.81,393.84,385.09z"/>
			<path class="st0" d="M384.22,358.47l4.15-4.15l2.44-2.44l12.6-12.6h19.08c-0.89,10.42-9.37,18.67-19.9,19.19H384.22z"/>
		</g>
	</g>
	<g id="_x3C_Grid_Repeat_x3E__00000086684826329053652030000017951408340595553681_">
		<g>
			<path class="st0" d="M667.76,355.63c0,4.85-1.86,9.27-4.9,12.58l-1.1,1.1l-4.75,4.75l-11.2,11.2c-0.64,0.56-1.25,1.17-1.81,1.81
				l0,0c-3.07,3.5-4.94,8.08-4.94,13.1c0,0.43,0.02,0.85,0.04,1.28l-9.62-9.62c0.36-3.52,1.6-6.78,3.48-9.57
				c0.74-1.1,1.59-2.12,2.52-3.06l0.09-0.09l6.36-6.36l3.27-3.27l12.05-12.05c0.17-0.16,0.34-0.33,0.51-0.51
				c1.99-2.11,3.2-4.95,3.2-8.08c0-1.04-0.13-2.06-0.39-3.02c-0.23-0.88-0.56-1.72-0.98-2.51c-0.85-1.6-2.06-2.98-3.52-4.04
				c4.1,1.21,7.52,4,9.54,7.68c0.25,0.46,0.47,0.94,0.68,1.43c0.29,0.69,0.55,1.41,0.75,2.14c0.01,0.05,0.03,0.1,0.04,0.15
				C667.53,352.25,667.76,353.91,667.76,355.63z"/>
			<path class="st0" d="M677.38,382.26l-4.15,4.15l-2.44,2.44l-12.6,12.6H639.1c0.89-10.42,9.37-18.67,19.9-19.19H677.38z"/>
		</g>
	</g>
	<g id="_x3C_Grid_Repeat_x3E__00000041262507629774653690000014785929908525586577_">
		<g>
			<path class="st0" d="M884.35,385.09c0-4.85,1.86-9.27,4.9-12.58l1.1-1.1l4.75-4.75l11.2-11.2c0.64-0.56,1.25-1.17,1.81-1.81l0,0
				c3.07-3.5,4.94-8.08,4.94-13.1c0-0.43-0.01-0.85-0.04-1.28l9.62,9.62c-0.36,3.52-1.6,6.78-3.48,9.57
				c-0.74,1.1-1.59,2.12-2.52,3.06l-0.09,0.09l-6.36,6.36l-3.27,3.27l-12.05,12.05c-0.17,0.16-0.34,0.33-0.51,0.51
				c-1.99,2.11-3.2,4.95-3.2,8.08c0,1.04,0.14,2.06,0.39,3.02c0.23,0.88,0.56,1.72,0.98,2.51c0.85,1.6,2.06,2.98,3.52,4.04
				c-4.1-1.21-7.52-4-9.54-7.68c-0.25-0.46-0.47-0.94-0.68-1.43c-0.29-0.69-0.55-1.41-0.75-2.14c-0.02-0.05-0.03-0.1-0.04-0.15
				C884.59,388.47,884.35,386.81,884.35,385.09z"/>
			<path class="st0" d="M874.73,358.47l4.15-4.15l2.44-2.44l12.6-12.6h19.08c-0.89,10.42-9.37,18.67-19.9,19.19H874.73z"/>
		</g>
	</g>
	<g id="_x3C_Grid_Repeat_x3E__00000105414367036934182980000002815530106234969254_">
		<g>
			<path class="st0" d="M1158.27,355.63c0,4.85-1.86,9.27-4.9,12.58l-1.1,1.1l-4.75,4.75l-11.2,11.2c-0.64,0.56-1.25,1.17-1.81,1.81
				l0,0c-3.07,3.5-4.94,8.08-4.94,13.1c0,0.43,0.02,0.85,0.04,1.28l-9.62-9.62c0.36-3.52,1.6-6.78,3.48-9.57
				c0.74-1.1,1.59-2.12,2.52-3.06l0.09-0.09l6.36-6.36l3.27-3.27l12.05-12.05c0.17-0.16,0.34-0.33,0.51-0.51
				c1.99-2.11,3.2-4.95,3.2-8.08c0-1.04-0.14-2.06-0.39-3.02c-0.23-0.88-0.56-1.72-0.98-2.51c-0.85-1.6-2.06-2.98-3.52-4.04
				c4.1,1.21,7.52,4,9.54,7.68c0.25,0.46,0.47,0.94,0.68,1.43c0.29,0.69,0.55,1.41,0.75,2.14c0.02,0.05,0.03,0.1,0.04,0.15
				C1158.04,352.25,1158.27,353.91,1158.27,355.63z"/>
			<path class="st0" d="M1167.89,382.26l-4.15,4.15l-2.44,2.44l-12.6,12.6h-19.08c0.89-10.42,9.37-18.67,19.9-19.19H1167.89z"/>
		</g>
	</g>
	<g id="_x3C_Grid_Repeat_x3E__00000153688767732047596580000015783428092464315816_">
		<g>
			<path class="st0" d="M1374.87,385.09c0-4.85,1.86-9.27,4.9-12.58l1.1-1.1l4.75-4.75l11.2-11.2c0.64-0.56,1.25-1.17,1.81-1.81l0,0
				c3.07-3.5,4.94-8.08,4.94-13.1c0-0.43-0.02-0.85-0.04-1.28l9.62,9.62c-0.36,3.52-1.6,6.78-3.48,9.57
				c-0.74,1.1-1.59,2.12-2.52,3.06l-0.09,0.09l-6.36,6.36l-3.27,3.27l-12.05,12.05c-0.17,0.16-0.34,0.33-0.51,0.51
				c-1.99,2.11-3.2,4.95-3.2,8.08c0,1.04,0.13,2.06,0.39,3.02c0.23,0.88,0.56,1.72,0.98,2.51c0.85,1.6,2.06,2.98,3.52,4.04
				c-4.1-1.21-7.52-4-9.54-7.68c-0.25-0.46-0.47-0.94-0.68-1.43c-0.29-0.69-0.55-1.41-0.75-2.14c-0.02-0.05-0.03-0.1-0.04-0.15
				C1375.1,388.47,1374.87,386.81,1374.87,385.09z"/>
			<path class="st0" d="M1365.25,358.47l4.15-4.15l2.44-2.44l12.6-12.6h19.08c-0.89,10.42-9.37,18.67-19.9,19.19H1365.25z"/>
		</g>
	</g>
	<g id="_x3C_Grid_Repeat_x3E__00000090263508311539948910000004920725154805452437_">
		<g>
			<path class="st0" d="M1648.79,355.63c0,4.85-1.86,9.27-4.9,12.58l-1.1,1.1l-4.75,4.75l-11.2,11.2c-0.64,0.56-1.25,1.17-1.81,1.81
				l0,0c-3.07,3.5-4.94,8.08-4.94,13.1c0,0.43,0.02,0.85,0.04,1.28l-9.62-9.62c0.36-3.52,1.6-6.78,3.48-9.57
				c0.74-1.1,1.59-2.12,2.52-3.06l0.09-0.09l6.36-6.36l3.27-3.27l12.05-12.05c0.17-0.16,0.34-0.33,0.51-0.51
				c1.99-2.11,3.2-4.95,3.2-8.08c0-1.04-0.14-2.06-0.39-3.02c-0.23-0.88-0.56-1.72-0.98-2.51c-0.85-1.6-2.06-2.98-3.52-4.04
				c4.1,1.21,7.52,4,9.54,7.68c0.25,0.46,0.47,0.94,0.68,1.43c0.29,0.69,0.55,1.41,0.75,2.14c0.02,0.05,0.03,0.1,0.04,0.15
				C1648.55,352.25,1648.79,353.91,1648.79,355.63z"/>
			<path class="st0" d="M1658.41,382.26l-4.15,4.15l-2.44,2.44l-12.6,12.6h-19.08c0.89-10.42,9.37-18.67,19.9-19.19H1658.41z"/>
		</g>
	</g>
	<g id="_x3C_Grid_Repeat_x3E__00000124139089699586069780000002163286141043559590_">
		<g>
			<path class="st0" d="M1865.38,385.09c0-4.85,1.86-9.27,4.9-12.58l1.1-1.1l4.75-4.75l11.2-11.2c0.64-0.56,1.25-1.17,1.81-1.81l0,0
				c3.07-3.5,4.94-8.08,4.94-13.1c0-0.43-0.02-0.85-0.04-1.28l9.62,9.62c-0.36,3.52-1.6,6.78-3.48,9.57
				c-0.74,1.1-1.59,2.12-2.52,3.06l-0.09,0.09l-6.36,6.36l-3.27,3.27l-12.05,12.05c-0.17,0.16-0.34,0.33-0.51,0.51
				c-1.99,2.11-3.2,4.95-3.2,8.08c0,1.04,0.13,2.06,0.39,3.02c0.23,0.88,0.56,1.72,0.98,2.51c0.85,1.6,2.06,2.98,3.52,4.04
				c-4.1-1.21-7.52-4-9.54-7.68c-0.25-0.46-0.47-0.94-0.68-1.43c-0.29-0.69-0.55-1.41-0.75-2.14c-0.02-0.05-0.03-0.1-0.04-0.15
				C1865.61,388.47,1865.38,386.81,1865.38,385.09z"/>
			<path class="st0" d="M1855.76,358.47l4.15-4.15l2.44-2.44l12.6-12.6h19.08c-0.89,10.42-9.37,18.67-19.9,19.19H1855.76z"/>
		</g>
	</g>
	<g id="_x3C_Grid_Repeat_x3E__00000018211983019459668580000011769812460147711117_">
		<g>
			<path class="st0" d="M54.62,440.45c0,4.85-1.86,9.27-4.9,12.58l-1.1,1.1l-4.75,4.75l-11.2,11.2c-0.64,0.56-1.25,1.17-1.81,1.81
				l0,0c-3.07,3.5-4.94,8.08-4.94,13.1c0,0.43,0.01,0.85,0.04,1.28l-9.62-9.62c0.36-3.52,1.6-6.78,3.48-9.57
				c0.74-1.1,1.59-2.12,2.52-3.06l0.09-0.09l6.36-6.36l3.27-3.27l12.05-12.05c0.17-0.16,0.34-0.33,0.51-0.51
				c1.99-2.11,3.2-4.95,3.2-8.08c0-1.04-0.13-2.06-0.39-3.02c-0.23-0.88-0.56-1.72-0.98-2.51c-0.85-1.6-2.06-2.98-3.52-4.04
				c4.1,1.21,7.52,4,9.54,7.68c0.25,0.46,0.47,0.94,0.68,1.43c0.29,0.69,0.55,1.41,0.75,2.14c0.01,0.05,0.03,0.1,0.04,0.15
				C54.39,437.07,54.62,438.73,54.62,440.45z"/>
			<path class="st0" d="M64.24,467.07l-4.15,4.15l-2.44,2.44l-12.6,12.6H25.96c0.89-10.42,9.37-18.67,19.9-19.19H64.24z"/>
		</g>
	</g>
	<g id="_x3C_Grid_Repeat_x3E__00000093880209877046000000000016049524952344728466_">
		<g>
			<path class="st0" d="M271.21,469.91c0-4.85,1.86-9.27,4.9-12.58l1.1-1.1l4.75-4.75l11.2-11.2c0.64-0.56,1.25-1.17,1.81-1.81l0,0
				c3.07-3.5,4.94-8.08,4.94-13.1c0-0.43-0.01-0.85-0.04-1.28l9.62,9.62c-0.36,3.52-1.6,6.78-3.48,9.57
				c-0.74,1.1-1.59,2.12-2.52,3.06l-0.09,0.09l-6.36,6.36l-3.27,3.27l-12.05,12.05c-0.17,0.16-0.34,0.33-0.51,0.51
				c-1.99,2.11-3.2,4.95-3.2,8.08c0,1.04,0.13,2.06,0.39,3.02c0.23,0.88,0.56,1.72,0.98,2.51c0.85,1.6,2.06,2.98,3.52,4.04
				c-4.1-1.21-7.52-4-9.54-7.68c-0.25-0.46-0.47-0.94-0.68-1.43c-0.29-0.69-0.55-1.41-0.75-2.14c-0.01-0.05-0.03-0.1-0.04-0.15
				C271.45,473.29,271.21,471.63,271.21,469.91z"/>
			<path class="st0" d="M261.59,443.29l4.15-4.15l2.44-2.44l12.6-12.6h19.08c-0.89,10.42-9.37,18.67-19.9,19.19H261.59z"/>
		</g>
	</g>
	<g id="_x3C_Grid_Repeat_x3E__00000021084635279616249020000011716616462351812489_">
		<g>
			<path class="st0" d="M545.13,440.45c0,4.85-1.86,9.27-4.9,12.58l-1.1,1.1l-4.75,4.75l-11.2,11.2c-0.64,0.56-1.25,1.17-1.81,1.81
				l0,0c-3.07,3.5-4.94,8.08-4.94,13.1c0,0.43,0.02,0.85,0.04,1.28l-9.62-9.62c0.36-3.52,1.6-6.78,3.48-9.57
				c0.74-1.1,1.59-2.12,2.52-3.06l0.09-0.09l6.36-6.36l3.27-3.27l12.05-12.05c0.17-0.16,0.34-0.33,0.51-0.51
				c1.99-2.11,3.2-4.95,3.2-8.08c0-1.04-0.13-2.06-0.39-3.02c-0.23-0.88-0.56-1.72-0.98-2.51c-0.85-1.6-2.06-2.98-3.52-4.04
				c4.1,1.21,7.52,4,9.54,7.68c0.25,0.46,0.47,0.94,0.68,1.43c0.29,0.69,0.55,1.41,0.75,2.14c0.02,0.05,0.03,0.1,0.04,0.15
				C544.9,437.07,545.13,438.73,545.13,440.45z"/>
			<path class="st0" d="M554.75,467.07l-4.16,4.15l-2.44,2.44l-12.6,12.6h-19.08c0.89-10.42,9.37-18.67,19.9-19.19H554.75z"/>
		</g>
	</g>
	<g id="_x3C_Grid_Repeat_x3E__00000034782447617593707670000014356665524178203015_">
		<g>
			<path class="st0" d="M761.73,469.91c0-4.85,1.86-9.27,4.9-12.58l1.1-1.1l4.75-4.75l11.2-11.2c0.64-0.56,1.25-1.17,1.81-1.81l0,0
				c3.07-3.5,4.94-8.08,4.94-13.1c0-0.43-0.02-0.85-0.04-1.28l9.62,9.62c-0.36,3.52-1.6,6.78-3.48,9.57
				c-0.74,1.1-1.59,2.12-2.52,3.06l-0.09,0.09l-6.36,6.36l-3.27,3.27l-12.05,12.05c-0.17,0.16-0.34,0.33-0.51,0.51
				c-1.99,2.11-3.2,4.95-3.2,8.08c0,1.04,0.13,2.06,0.39,3.02c0.23,0.88,0.56,1.72,0.98,2.51c0.85,1.6,2.06,2.98,3.52,4.04
				c-4.1-1.21-7.52-4-9.54-7.68c-0.25-0.46-0.47-0.94-0.68-1.43c-0.29-0.69-0.55-1.41-0.75-2.14c-0.01-0.05-0.03-0.1-0.04-0.15
				C761.96,473.29,761.73,471.63,761.73,469.91z"/>
			<path class="st0" d="M752.11,443.29l4.15-4.15l2.44-2.44l12.6-12.6h19.08c-0.89,10.42-9.37,18.67-19.9,19.19H752.11z"/>
		</g>
	</g>
	<g id="_x3C_Grid_Repeat_x3E__00000088844977841090586260000008531494327008457653_">
		<g>
			<path class="st0" d="M1035.65,440.45c0,4.85-1.86,9.27-4.9,12.58l-1.1,1.1l-4.75,4.75l-11.2,11.2c-0.64,0.56-1.25,1.17-1.81,1.81
				l0,0c-3.07,3.5-4.94,8.08-4.94,13.1c0,0.43,0.01,0.85,0.04,1.28l-9.62-9.62c0.36-3.52,1.6-6.78,3.48-9.57
				c0.74-1.1,1.59-2.12,2.52-3.06l0.09-0.09l6.36-6.36l3.27-3.27l12.05-12.05c0.18-0.16,0.34-0.33,0.51-0.51
				c1.99-2.11,3.2-4.95,3.2-8.08c0-1.04-0.13-2.06-0.39-3.02c-0.23-0.88-0.56-1.72-0.98-2.51c-0.85-1.6-2.06-2.98-3.52-4.04
				c4.1,1.21,7.52,4,9.54,7.68c0.25,0.46,0.47,0.94,0.68,1.43c0.29,0.69,0.55,1.41,0.75,2.14c0.02,0.05,0.03,0.1,0.04,0.15
				C1035.41,437.07,1035.65,438.73,1035.65,440.45z"/>
			<path class="st0" d="M1045.27,467.07l-4.15,4.15l-2.44,2.44l-12.6,12.6h-19.08c0.89-10.42,9.37-18.67,19.9-19.19H1045.27z"/>
		</g>
	</g>
	<g id="_x3C_Grid_Repeat_x3E__00000066492260418249402430000017380896314960965015_">
		<g>
			<path class="st0" d="M1252.24,469.91c0-4.85,1.86-9.27,4.9-12.58l1.1-1.1l4.75-4.75l11.2-11.2c0.64-0.56,1.25-1.17,1.81-1.81l0,0
				c3.07-3.5,4.94-8.08,4.94-13.1c0-0.43-0.02-0.85-0.04-1.28l9.62,9.62c-0.36,3.52-1.6,6.78-3.48,9.57
				c-0.74,1.1-1.59,2.12-2.52,3.06l-0.09,0.09l-6.36,6.36l-3.27,3.27l-12.05,12.05c-0.17,0.16-0.34,0.33-0.51,0.51
				c-1.99,2.11-3.2,4.95-3.2,8.08c0,1.04,0.14,2.06,0.39,3.02c0.23,0.88,0.56,1.72,0.98,2.51c0.85,1.6,2.06,2.98,3.52,4.04
				c-4.1-1.21-7.52-4-9.54-7.68c-0.25-0.46-0.47-0.94-0.68-1.43c-0.29-0.69-0.55-1.41-0.75-2.14c-0.02-0.05-0.03-0.1-0.04-0.15
				C1252.47,473.29,1252.24,471.63,1252.24,469.91z"/>
			<path class="st0" d="M1242.62,443.29l4.15-4.15l2.44-2.44l12.6-12.6h19.08c-0.89,10.42-9.37,18.67-19.9,19.19H1242.62z"/>
		</g>
	</g>
	<g id="_x3C_Grid_Repeat_x3E__00000069382306603088337890000004969023537741782678_">
		<g>
			<path class="st0" d="M1526.16,440.45c0,4.85-1.86,9.27-4.9,12.58l-1.1,1.1l-4.75,4.75l-11.2,11.2c-0.64,0.56-1.25,1.17-1.81,1.81
				l0,0c-3.07,3.5-4.94,8.08-4.94,13.1c0,0.43,0.02,0.85,0.04,1.28l-9.62-9.62c0.36-3.52,1.6-6.78,3.48-9.57
				c0.74-1.1,1.59-2.12,2.52-3.06l0.09-0.09l6.36-6.36l3.27-3.27l12.05-12.05c0.18-0.16,0.34-0.33,0.51-0.51
				c1.99-2.11,3.2-4.95,3.2-8.08c0-1.04-0.13-2.06-0.39-3.02c-0.23-0.88-0.56-1.72-0.98-2.51c-0.85-1.6-2.06-2.98-3.52-4.04
				c4.1,1.21,7.52,4,9.54,7.68c0.25,0.46,0.47,0.94,0.68,1.43c0.29,0.69,0.55,1.41,0.75,2.14c0.02,0.05,0.03,0.1,0.04,0.15
				C1525.93,437.07,1526.16,438.73,1526.16,440.45z"/>
			<path class="st0" d="M1535.78,467.07l-4.15,4.15l-2.44,2.44l-12.6,12.6h-19.08c0.89-10.42,9.37-18.67,19.9-19.19H1535.78z"/>
		</g>
	</g>
	<g id="_x3C_Grid_Repeat_x3E__00000109708694533191698930000003670562460296356281_">
		<g>
			<path class="st0" d="M1742.75,469.91c0-4.85,1.86-9.27,4.9-12.58l1.1-1.1l4.75-4.75l11.2-11.2c0.64-0.56,1.25-1.17,1.81-1.81l0,0
				c3.07-3.5,4.94-8.08,4.94-13.1c0-0.43-0.02-0.85-0.04-1.28l9.62,9.62c-0.36,3.52-1.6,6.78-3.48,9.57
				c-0.74,1.1-1.59,2.12-2.52,3.06l-0.09,0.09l-6.36,6.36l-3.27,3.27l-12.05,12.05c-0.17,0.16-0.34,0.33-0.51,0.51
				c-1.99,2.11-3.2,4.95-3.2,8.08c0,1.04,0.14,2.06,0.39,3.02c0.23,0.88,0.56,1.72,0.98,2.51c0.85,1.6,2.06,2.98,3.52,4.04
				c-4.1-1.21-7.52-4-9.54-7.68c-0.25-0.46-0.47-0.94-0.68-1.43c-0.29-0.69-0.55-1.41-0.75-2.14c-0.02-0.05-0.03-0.1-0.04-0.15
				C1742.98,473.29,1742.75,471.63,1742.75,469.91z"/>
			<path class="st0" d="M1733.13,443.29l4.16-4.15l2.44-2.44l12.6-12.6h19.08c-0.89,10.42-9.37,18.67-19.9,19.19H1733.13z"/>
		</g>
	</g>
	<g id="_x3C_Grid_Repeat_x3E__00000119117123302406003970000005847675485130006975_">
		<g>
			<path class="st0" d="M177.25,525.27c0,4.85-1.86,9.27-4.9,12.58l-1.1,1.1l-4.75,4.75l-11.2,11.2c-0.64,0.56-1.25,1.17-1.81,1.81
				l0,0c-3.07,3.5-4.94,8.08-4.94,13.1c0,0.43,0.01,0.85,0.04,1.28l-9.62-9.62c0.36-3.52,1.6-6.78,3.48-9.57
				c0.74-1.1,1.59-2.12,2.52-3.06l0.09-0.09l6.36-6.36l3.27-3.27l12.05-12.05c0.17-0.16,0.34-0.33,0.51-0.51
				c1.99-2.11,3.2-4.95,3.2-8.08c0-1.04-0.13-2.06-0.39-3.02c-0.23-0.88-0.56-1.72-0.98-2.51c-0.85-1.6-2.06-2.98-3.52-4.04
				c4.1,1.21,7.52,4,9.54,7.68c0.25,0.46,0.47,0.94,0.68,1.43c0.29,0.69,0.55,1.41,0.75,2.14c0.01,0.05,0.03,0.1,0.04,0.15
				C177.02,521.89,177.25,523.55,177.25,525.27z"/>
			<path class="st0" d="M186.87,551.89l-4.15,4.15l-2.44,2.44l-12.6,12.6h-19.08c0.89-10.42,9.37-18.67,19.9-19.19H186.87z"/>
		</g>
	</g>
	<g id="_x3C_Grid_Repeat_x3E__00000140702402262964085070000017296801414062521787_">
		<g>
			<path class="st0" d="M393.84,554.73c0-4.85,1.86-9.27,4.9-12.58l1.1-1.1l4.75-4.75l11.2-11.2c0.64-0.56,1.25-1.17,1.81-1.81l0,0
				c3.07-3.5,4.94-8.08,4.94-13.1c0-0.43-0.01-0.85-0.04-1.28l9.62,9.62c-0.36,3.52-1.6,6.78-3.48,9.57
				c-0.74,1.1-1.59,2.12-2.52,3.06l-0.09,0.09l-6.36,6.36l-3.27,3.27l-12.05,12.05c-0.17,0.16-0.34,0.33-0.51,0.51
				c-1.99,2.11-3.2,4.95-3.2,8.08c0,1.04,0.13,2.06,0.39,3.02c0.23,0.88,0.56,1.72,0.98,2.51c0.85,1.6,2.06,2.98,3.52,4.04
				c-4.1-1.21-7.52-4-9.54-7.68c-0.25-0.46-0.47-0.94-0.68-1.43c-0.29-0.69-0.55-1.41-0.75-2.14c-0.01-0.05-0.03-0.1-0.04-0.15
				C394.07,558.11,393.84,556.45,393.84,554.73z"/>
			<path class="st0" d="M384.22,528.11l4.15-4.15l2.44-2.44l12.6-12.6h19.08c-0.89,10.42-9.37,18.67-19.9,19.19H384.22z"/>
		</g>
	</g>
	<g id="_x3C_Grid_Repeat_x3E__00000161593163007179603140000017992279058376448926_">
		<g>
			<path class="st0" d="M667.76,525.27c0,4.85-1.86,9.27-4.9,12.58l-1.1,1.1l-4.75,4.75l-11.2,11.2c-0.64,0.56-1.25,1.17-1.81,1.81
				l0,0c-3.07,3.5-4.94,8.08-4.94,13.1c0,0.43,0.02,0.85,0.04,1.28l-9.62-9.62c0.36-3.52,1.6-6.78,3.48-9.57
				c0.74-1.1,1.59-2.12,2.52-3.06l0.09-0.09l6.36-6.36l3.27-3.27l12.05-12.05c0.17-0.16,0.34-0.33,0.51-0.51
				c1.99-2.11,3.2-4.95,3.2-8.08c0-1.04-0.13-2.06-0.39-3.02c-0.23-0.88-0.56-1.72-0.98-2.51c-0.85-1.6-2.06-2.98-3.52-4.04
				c4.1,1.21,7.52,4,9.54,7.68c0.25,0.46,0.47,0.94,0.68,1.43c0.29,0.69,0.55,1.41,0.75,2.14c0.01,0.05,0.03,0.1,0.04,0.15
				C667.53,521.89,667.76,523.55,667.76,525.27z"/>
			<path class="st0" d="M677.38,551.89l-4.15,4.15l-2.44,2.44l-12.6,12.6H639.1c0.89-10.42,9.37-18.67,19.9-19.19H677.38z"/>
		</g>
	</g>
	<g id="_x3C_Grid_Repeat_x3E__00000096764181192185522360000015803567371460583083_">
		<g>
			<path class="st0" d="M884.35,554.73c0-4.85,1.86-9.27,4.9-12.58l1.1-1.1l4.75-4.75l11.2-11.2c0.64-0.56,1.25-1.17,1.81-1.81l0,0
				c3.07-3.5,4.94-8.08,4.94-13.1c0-0.43-0.01-0.85-0.04-1.28l9.62,9.62c-0.36,3.52-1.6,6.78-3.48,9.57
				c-0.74,1.1-1.59,2.12-2.52,3.06l-0.09,0.09l-6.36,6.36l-3.27,3.27l-12.05,12.05c-0.17,0.16-0.34,0.33-0.51,0.51
				c-1.99,2.11-3.2,4.95-3.2,8.08c0,1.04,0.14,2.06,0.39,3.02c0.23,0.88,0.56,1.72,0.98,2.51c0.85,1.6,2.06,2.98,3.52,4.04
				c-4.1-1.21-7.52-4-9.54-7.68c-0.25-0.46-0.47-0.94-0.68-1.43c-0.29-0.69-0.55-1.41-0.75-2.14c-0.02-0.05-0.03-0.1-0.04-0.15
				C884.59,558.11,884.35,556.45,884.35,554.73z"/>
			<path class="st0" d="M874.73,528.11l4.15-4.15l2.44-2.44l12.6-12.6h19.08c-0.89,10.42-9.37,18.67-19.9,19.19H874.73z"/>
		</g>
	</g>
	<g id="_x3C_Grid_Repeat_x3E__00000145741074694856296490000000235228280302262952_">
		<g>
			<path class="st0" d="M1158.27,525.27c0,4.85-1.86,9.27-4.9,12.58l-1.1,1.1l-4.75,4.75l-11.2,11.2c-0.64,0.56-1.25,1.17-1.81,1.81
				l0,0c-3.07,3.5-4.94,8.08-4.94,13.1c0,0.43,0.02,0.85,0.04,1.28l-9.62-9.62c0.36-3.52,1.6-6.78,3.48-9.57
				c0.74-1.1,1.59-2.12,2.52-3.06l0.09-0.09l6.36-6.36l3.27-3.27l12.05-12.05c0.17-0.16,0.34-0.33,0.51-0.51
				c1.99-2.11,3.2-4.95,3.2-8.08c0-1.04-0.14-2.06-0.39-3.02c-0.23-0.88-0.56-1.72-0.98-2.51c-0.85-1.6-2.06-2.98-3.52-4.04
				c4.1,1.21,7.52,4,9.54,7.68c0.25,0.46,0.47,0.94,0.68,1.43c0.29,0.69,0.55,1.41,0.75,2.14c0.02,0.05,0.03,0.1,0.04,0.15
				C1158.04,521.89,1158.27,523.55,1158.27,525.27z"/>
			<path class="st0" d="M1167.89,551.89l-4.15,4.15l-2.44,2.44l-12.6,12.6h-19.08c0.89-10.42,9.37-18.67,19.9-19.19H1167.89z"/>
		</g>
	</g>
	<g id="_x3C_Grid_Repeat_x3E__00000061473064443600024620000015096936867575523494_">
		<g>
			<path class="st0" d="M1374.87,554.73c0-4.85,1.86-9.27,4.9-12.58l1.1-1.1l4.75-4.75l11.2-11.2c0.64-0.56,1.25-1.17,1.81-1.81l0,0
				c3.07-3.5,4.94-8.08,4.94-13.1c0-0.43-0.02-0.85-0.04-1.28l9.62,9.62c-0.36,3.52-1.6,6.78-3.48,9.57
				c-0.74,1.1-1.59,2.12-2.52,3.06l-0.09,0.09l-6.36,6.36l-3.27,3.27l-12.05,12.05c-0.17,0.16-0.34,0.33-0.51,0.51
				c-1.99,2.11-3.2,4.95-3.2,8.08c0,1.04,0.13,2.06,0.39,3.02c0.23,0.88,0.56,1.72,0.98,2.51c0.85,1.6,2.06,2.98,3.52,4.04
				c-4.1-1.21-7.52-4-9.54-7.68c-0.25-0.46-0.47-0.94-0.68-1.43c-0.29-0.69-0.55-1.41-0.75-2.14c-0.02-0.05-0.03-0.1-0.04-0.15
				C1375.1,558.11,1374.87,556.45,1374.87,554.73z"/>
			<path class="st0" d="M1365.25,528.11l4.15-4.15l2.44-2.44l12.6-12.6h19.08c-0.89,10.42-9.37,18.67-19.9,19.19H1365.25z"/>
		</g>
	</g>
	<g id="_x3C_Grid_Repeat_x3E__00000163782774614131362860000005518900875249880215_">
		<g>
			<path class="st0" d="M1648.79,525.27c0,4.85-1.86,9.27-4.9,12.58l-1.1,1.1l-4.75,4.75l-11.2,11.2c-0.64,0.56-1.25,1.17-1.81,1.81
				l0,0c-3.07,3.5-4.94,8.08-4.94,13.1c0,0.43,0.02,0.85,0.04,1.28l-9.62-9.62c0.36-3.52,1.6-6.78,3.48-9.57
				c0.74-1.1,1.59-2.12,2.52-3.06l0.09-0.09l6.36-6.36l3.27-3.27l12.05-12.05c0.17-0.16,0.34-0.33,0.51-0.51
				c1.99-2.11,3.2-4.95,3.2-8.08c0-1.04-0.14-2.06-0.39-3.02c-0.23-0.88-0.56-1.72-0.98-2.51c-0.85-1.6-2.06-2.98-3.52-4.04
				c4.1,1.21,7.52,4,9.54,7.68c0.25,0.46,0.47,0.94,0.68,1.43c0.29,0.69,0.55,1.41,0.75,2.14c0.02,0.05,0.03,0.1,0.04,0.15
				C1648.55,521.89,1648.79,523.55,1648.79,525.27z"/>
			<path class="st0" d="M1658.41,551.89l-4.15,4.15l-2.44,2.44l-12.6,12.6h-19.08c0.89-10.42,9.37-18.67,19.9-19.19H1658.41z"/>
		</g>
	</g>
	<g id="_x3C_Grid_Repeat_x3E__00000049922349311662943730000004291966139534387351_">
		<g>
			<path class="st0" d="M1865.38,554.73c0-4.85,1.86-9.27,4.9-12.58l1.1-1.1l4.75-4.75l11.2-11.2c0.64-0.56,1.25-1.17,1.81-1.81l0,0
				c3.07-3.5,4.94-8.08,4.94-13.1c0-0.43-0.02-0.85-0.04-1.28l9.62,9.62c-0.36,3.52-1.6,6.78-3.48,9.57
				c-0.74,1.1-1.59,2.12-2.52,3.06l-0.09,0.09l-6.36,6.36l-3.27,3.27l-12.05,12.05c-0.17,0.16-0.34,0.33-0.51,0.51
				c-1.99,2.11-3.2,4.95-3.2,8.08c0,1.04,0.13,2.06,0.39,3.02c0.23,0.88,0.56,1.72,0.98,2.51c0.85,1.6,2.06,2.98,3.52,4.04
				c-4.1-1.21-7.52-4-9.54-7.68c-0.25-0.46-0.47-0.94-0.68-1.43c-0.29-0.69-0.55-1.41-0.75-2.14c-0.02-0.05-0.03-0.1-0.04-0.15
				C1865.61,558.11,1865.38,556.45,1865.38,554.73z"/>
			<path class="st0" d="M1855.76,528.11l4.15-4.15l2.44-2.44l12.6-12.6h19.08c-0.89,10.42-9.37,18.67-19.9,19.19H1855.76z"/>
		</g>
	</g>
	<g id="_x3C_Grid_Repeat_x3E__00000018940122734211749940000001788233297073537963_">
		<g>
			<path class="st0" d="M54.62,610.09c0,4.85-1.86,9.27-4.9,12.58l-1.1,1.1l-4.75,4.75l-11.2,11.2c-0.64,0.56-1.25,1.17-1.81,1.81
				l0,0c-3.07,3.5-4.94,8.08-4.94,13.1c0,0.43,0.01,0.85,0.04,1.28l-9.62-9.62c0.36-3.52,1.6-6.78,3.48-9.57
				c0.74-1.1,1.59-2.12,2.52-3.06l0.09-0.09l6.36-6.36l3.27-3.27l12.05-12.05c0.17-0.16,0.34-0.33,0.51-0.51
				c1.99-2.11,3.2-4.95,3.2-8.08c0-1.04-0.13-2.06-0.39-3.02c-0.23-0.88-0.56-1.72-0.98-2.51c-0.85-1.6-2.06-2.98-3.52-4.04
				c4.1,1.21,7.52,4,9.54,7.68c0.25,0.46,0.47,0.94,0.68,1.43c0.29,0.69,0.55,1.41,0.75,2.14c0.01,0.05,0.03,0.1,0.04,0.15
				C54.39,606.71,54.62,608.37,54.62,610.09z"/>
			<path class="st0" d="M64.24,636.71l-4.15,4.15l-2.44,2.44l-12.6,12.6H25.96c0.89-10.42,9.37-18.67,19.9-19.19H64.24z"/>
		</g>
	</g>
	<g id="_x3C_Grid_Repeat_x3E__00000011009560176480441600000005920072827050871461_">
		<g>
			<path class="st0" d="M271.21,639.55c0-4.85,1.86-9.27,4.9-12.58l1.1-1.1l4.75-4.75l11.2-11.2c0.64-0.56,1.25-1.17,1.81-1.81l0,0
				c3.07-3.5,4.94-8.08,4.94-13.1c0-0.43-0.01-0.85-0.04-1.28l9.62,9.62c-0.36,3.52-1.6,6.78-3.48,9.57
				c-0.74,1.1-1.59,2.12-2.52,3.06l-0.09,0.09l-6.36,6.36l-3.27,3.27l-12.05,12.05c-0.17,0.16-0.34,0.33-0.51,0.51
				c-1.99,2.11-3.2,4.95-3.2,8.08c0,1.04,0.13,2.06,0.39,3.02c0.23,0.88,0.56,1.72,0.98,2.51c0.85,1.6,2.06,2.98,3.52,4.04
				c-4.1-1.21-7.52-4-9.54-7.68c-0.25-0.46-0.47-0.94-0.68-1.43c-0.29-0.69-0.55-1.41-0.75-2.14c-0.01-0.05-0.03-0.1-0.04-0.15
				C271.45,642.93,271.21,641.27,271.21,639.55z"/>
			<path class="st0" d="M261.59,612.93l4.15-4.15l2.44-2.44l12.6-12.6h19.08c-0.89,10.42-9.37,18.67-19.9,19.19H261.59z"/>
		</g>
	</g>
	<g id="_x3C_Grid_Repeat_x3E__00000086664260646151769450000001235259635643605640_">
		<g>
			<path class="st0" d="M545.13,610.09c0,4.85-1.86,9.27-4.9,12.58l-1.1,1.1l-4.75,4.75l-11.2,11.2c-0.64,0.56-1.25,1.17-1.81,1.81
				l0,0c-3.07,3.5-4.94,8.08-4.94,13.1c0,0.43,0.02,0.85,0.04,1.28l-9.62-9.62c0.36-3.52,1.6-6.78,3.48-9.57
				c0.74-1.1,1.59-2.12,2.52-3.06l0.09-0.09l6.36-6.36l3.27-3.27l12.05-12.05c0.17-0.16,0.34-0.33,0.51-0.51
				c1.99-2.11,3.2-4.95,3.2-8.08c0-1.04-0.13-2.06-0.39-3.02c-0.23-0.88-0.56-1.72-0.98-2.51c-0.85-1.6-2.06-2.98-3.52-4.04
				c4.1,1.21,7.52,4,9.54,7.68c0.25,0.46,0.47,0.94,0.68,1.43c0.29,0.69,0.55,1.41,0.75,2.14c0.02,0.05,0.03,0.1,0.04,0.15
				C544.9,606.71,545.13,608.37,545.13,610.09z"/>
			<path class="st0" d="M554.75,636.71l-4.16,4.15l-2.44,2.44l-12.6,12.6h-19.08c0.89-10.42,9.37-18.67,19.9-19.19H554.75z"/>
		</g>
	</g>
	<g id="_x3C_Grid_Repeat_x3E__00000177443992284298529520000007215413605622340027_">
		<g>
			<path class="st0" d="M761.73,639.55c0-4.85,1.86-9.27,4.9-12.58l1.1-1.1l4.75-4.75l11.2-11.2c0.64-0.56,1.25-1.17,1.81-1.81l0,0
				c3.07-3.5,4.94-8.08,4.94-13.1c0-0.43-0.02-0.85-0.04-1.28l9.62,9.62c-0.36,3.52-1.6,6.78-3.48,9.57
				c-0.74,1.1-1.59,2.12-2.52,3.06l-0.09,0.09l-6.36,6.36l-3.27,3.27l-12.05,12.05c-0.17,0.16-0.34,0.33-0.51,0.51
				c-1.99,2.11-3.2,4.95-3.2,8.08c0,1.04,0.13,2.06,0.39,3.02c0.23,0.88,0.56,1.72,0.98,2.51c0.85,1.6,2.06,2.98,3.52,4.04
				c-4.1-1.21-7.52-4-9.54-7.68c-0.25-0.46-0.47-0.94-0.68-1.43c-0.29-0.69-0.55-1.41-0.75-2.14c-0.01-0.05-0.03-0.1-0.04-0.15
				C761.96,642.93,761.73,641.27,761.73,639.55z"/>
			<path class="st0" d="M752.11,612.93l4.15-4.15l2.44-2.44l12.6-12.6h19.08c-0.89,10.42-9.37,18.67-19.9,19.19H752.11z"/>
		</g>
	</g>
	<g id="_x3C_Grid_Repeat_x3E__00000005958478418846177520000014761081523911399332_">
		<g>
			<path class="st0" d="M1035.65,610.09c0,4.85-1.86,9.27-4.9,12.58l-1.1,1.1l-4.75,4.75l-11.2,11.2c-0.64,0.56-1.25,1.17-1.81,1.81
				l0,0c-3.07,3.5-4.94,8.08-4.94,13.1c0,0.43,0.01,0.85,0.04,1.28l-9.62-9.62c0.36-3.52,1.6-6.78,3.48-9.57
				c0.74-1.1,1.59-2.12,2.52-3.06l0.09-0.09l6.36-6.36l3.27-3.27l12.05-12.05c0.18-0.16,0.34-0.33,0.51-0.51
				c1.99-2.11,3.2-4.95,3.2-8.08c0-1.04-0.13-2.06-0.39-3.02c-0.23-0.88-0.56-1.72-0.98-2.51c-0.85-1.6-2.06-2.98-3.52-4.04
				c4.1,1.21,7.52,4,9.54,7.68c0.25,0.46,0.47,0.94,0.68,1.43c0.29,0.69,0.55,1.41,0.75,2.14c0.02,0.05,0.03,0.1,0.04,0.15
				C1035.41,606.71,1035.65,608.37,1035.65,610.09z"/>
			<path class="st0" d="M1045.27,636.71l-4.15,4.15l-2.44,2.44l-12.6,12.6h-19.08c0.89-10.42,9.37-18.67,19.9-19.19H1045.27z"/>
		</g>
	</g>
	<g id="_x3C_Grid_Repeat_x3E__00000111893576219165557950000011067573089706360764_">
		<g>
			<path class="st0" d="M1252.24,639.55c0-4.85,1.86-9.27,4.9-12.58l1.1-1.1l4.75-4.75l11.2-11.2c0.64-0.56,1.25-1.17,1.81-1.81l0,0
				c3.07-3.5,4.94-8.08,4.94-13.1c0-0.43-0.02-0.85-0.04-1.28l9.62,9.62c-0.36,3.52-1.6,6.78-3.48,9.57
				c-0.74,1.1-1.59,2.12-2.52,3.06l-0.09,0.09l-6.36,6.36l-3.27,3.27l-12.05,12.05c-0.17,0.16-0.34,0.33-0.51,0.51
				c-1.99,2.11-3.2,4.95-3.2,8.08c0,1.04,0.14,2.06,0.39,3.02c0.23,0.88,0.56,1.72,0.98,2.51c0.85,1.6,2.06,2.98,3.52,4.04
				c-4.1-1.21-7.52-4-9.54-7.68c-0.25-0.46-0.47-0.94-0.68-1.43c-0.29-0.69-0.55-1.41-0.75-2.14c-0.02-0.05-0.03-0.1-0.04-0.15
				C1252.47,642.93,1252.24,641.27,1252.24,639.55z"/>
			<path class="st0" d="M1242.62,612.93l4.15-4.15l2.44-2.44l12.6-12.6h19.08c-0.89,10.42-9.37,18.67-19.9,19.19H1242.62z"/>
		</g>
	</g>
	<g id="_x3C_Grid_Repeat_x3E__00000085969474695715685510000007556058161738449325_">
		<g>
			<path class="st0" d="M1526.16,610.09c0,4.85-1.86,9.27-4.9,12.58l-1.1,1.1l-4.75,4.75l-11.2,11.2c-0.64,0.56-1.25,1.17-1.81,1.81
				l0,0c-3.07,3.5-4.94,8.08-4.94,13.1c0,0.43,0.02,0.85,0.04,1.28l-9.62-9.62c0.36-3.52,1.6-6.78,3.48-9.57
				c0.74-1.1,1.59-2.12,2.52-3.06l0.09-0.09l6.36-6.36l3.27-3.27l12.05-12.05c0.18-0.16,0.34-0.33,0.51-0.51
				c1.99-2.11,3.2-4.95,3.2-8.08c0-1.04-0.13-2.06-0.39-3.02c-0.23-0.88-0.56-1.72-0.98-2.51c-0.85-1.6-2.06-2.98-3.52-4.04
				c4.1,1.21,7.52,4,9.54,7.68c0.25,0.46,0.47,0.94,0.68,1.43c0.29,0.69,0.55,1.41,0.75,2.14c0.02,0.05,0.03,0.1,0.04,0.15
				C1525.93,606.71,1526.16,608.37,1526.16,610.09z"/>
			<path class="st0" d="M1535.78,636.71l-4.15,4.15l-2.44,2.44l-12.6,12.6h-19.08c0.89-10.42,9.37-18.67,19.9-19.19H1535.78z"/>
		</g>
	</g>
	<g id="_x3C_Grid_Repeat_x3E__00000029015757504500980440000008361433204624600713_">
		<g>
			<path class="st0" d="M1742.75,639.55c0-4.85,1.86-9.27,4.9-12.58l1.1-1.1l4.75-4.75l11.2-11.2c0.64-0.56,1.25-1.17,1.81-1.81l0,0
				c3.07-3.5,4.94-8.08,4.94-13.1c0-0.43-0.02-0.85-0.04-1.28l9.62,9.62c-0.36,3.52-1.6,6.78-3.48,9.57
				c-0.74,1.1-1.59,2.12-2.52,3.06l-0.09,0.09l-6.36,6.36l-3.27,3.27l-12.05,12.05c-0.17,0.16-0.34,0.33-0.51,0.51
				c-1.99,2.11-3.2,4.95-3.2,8.08c0,1.04,0.14,2.06,0.39,3.02c0.23,0.88,0.56,1.72,0.98,2.51c0.85,1.6,2.06,2.98,3.52,4.04
				c-4.1-1.21-7.52-4-9.54-7.68c-0.25-0.46-0.47-0.94-0.68-1.43c-0.29-0.69-0.55-1.41-0.75-2.14c-0.02-0.05-0.03-0.1-0.04-0.15
				C1742.98,642.93,1742.75,641.27,1742.75,639.55z"/>
			<path class="st0" d="M1733.13,612.93l4.16-4.15l2.44-2.44l12.6-12.6h19.08c-0.89,10.42-9.37,18.67-19.9,19.19H1733.13z"/>
		</g>
	</g>
	<g id="_x3C_Grid_Repeat_x3E__00000144338512637278320850000017807356883068298910_">
		<g>
			<path class="st0" d="M177.25,694.91c0,4.85-1.86,9.27-4.9,12.58l-1.1,1.1l-4.75,4.75l-11.2,11.2c-0.64,0.56-1.25,1.17-1.81,1.81
				l0,0c-3.07,3.5-4.94,8.08-4.94,13.1c0,0.43,0.01,0.85,0.04,1.28l-9.62-9.62c0.36-3.52,1.6-6.78,3.48-9.57
				c0.74-1.1,1.59-2.12,2.52-3.06l0.09-0.09l6.36-6.36l3.27-3.27l12.05-12.05c0.17-0.16,0.34-0.33,0.51-0.51
				c1.99-2.11,3.2-4.95,3.2-8.08c0-1.04-0.13-2.06-0.39-3.02c-0.23-0.88-0.56-1.72-0.98-2.51c-0.85-1.6-2.06-2.98-3.52-4.04
				c4.1,1.21,7.52,4,9.54,7.68c0.25,0.46,0.47,0.94,0.68,1.43c0.29,0.69,0.55,1.41,0.75,2.14c0.01,0.05,0.03,0.1,0.04,0.15
				C177.02,691.53,177.25,693.19,177.25,694.91z"/>
			<path class="st0" d="M186.87,721.53l-4.15,4.15l-2.44,2.44l-12.6,12.6h-19.08c0.89-10.42,9.37-18.67,19.9-19.19H186.87z"/>
		</g>
	</g>
	<g id="_x3C_Grid_Repeat_x3E__00000098908141001274645940000005493484405369496748_">
		<g>
			<path class="st0" d="M393.84,724.37c0-4.85,1.86-9.27,4.9-12.58l1.1-1.1l4.75-4.75l11.2-11.2c0.64-0.56,1.25-1.17,1.81-1.81l0,0
				c3.07-3.5,4.94-8.08,4.94-13.1c0-0.43-0.01-0.85-0.04-1.28l9.62,9.62c-0.36,3.52-1.6,6.78-3.48,9.57
				c-0.74,1.1-1.59,2.12-2.52,3.06l-0.09,0.09l-6.36,6.36l-3.27,3.27l-12.05,12.05c-0.17,0.16-0.34,0.33-0.51,0.51
				c-1.99,2.11-3.2,4.95-3.2,8.08c0,1.04,0.13,2.06,0.39,3.02c0.23,0.88,0.56,1.72,0.98,2.51c0.85,1.6,2.06,2.98,3.52,4.04
				c-4.1-1.21-7.52-4-9.54-7.68c-0.25-0.46-0.47-0.94-0.68-1.43c-0.29-0.69-0.55-1.41-0.75-2.14c-0.01-0.05-0.03-0.1-0.04-0.15
				C394.07,727.75,393.84,726.09,393.84,724.37z"/>
			<path class="st0" d="M384.22,697.74l4.15-4.15l2.44-2.44l12.6-12.6h19.08c-0.89,10.42-9.37,18.67-19.9,19.19H384.22z"/>
		</g>
	</g>
	<g id="_x3C_Grid_Repeat_x3E__00000088841840874321798770000014170012133865424527_">
		<g>
			<path class="st0" d="M667.76,694.91c0,4.85-1.86,9.27-4.9,12.58l-1.1,1.1l-4.75,4.75l-11.2,11.2c-0.64,0.56-1.25,1.17-1.81,1.81
				l0,0c-3.07,3.5-4.94,8.08-4.94,13.1c0,0.43,0.02,0.85,0.04,1.28l-9.62-9.62c0.36-3.52,1.6-6.78,3.48-9.57
				c0.74-1.1,1.59-2.12,2.52-3.06l0.09-0.09l6.36-6.36l3.27-3.27l12.05-12.05c0.17-0.16,0.34-0.33,0.51-0.51
				c1.99-2.11,3.2-4.95,3.2-8.08c0-1.04-0.13-2.06-0.39-3.02c-0.23-0.88-0.56-1.72-0.98-2.51c-0.85-1.6-2.06-2.98-3.52-4.04
				c4.1,1.21,7.52,4,9.54,7.68c0.25,0.46,0.47,0.94,0.68,1.43c0.29,0.69,0.55,1.41,0.75,2.14c0.01,0.05,0.03,0.1,0.04,0.15
				C667.53,691.53,667.76,693.19,667.76,694.91z"/>
			<path class="st0" d="M677.38,721.53l-4.15,4.15l-2.44,2.44l-12.6,12.6H639.1c0.89-10.42,9.37-18.67,19.9-19.19H677.38z"/>
		</g>
	</g>
	<g id="_x3C_Grid_Repeat_x3E__00000109747310737270695170000014477888844218919329_">
		<g>
			<path class="st0" d="M884.35,724.37c0-4.85,1.86-9.27,4.9-12.58l1.1-1.1l4.75-4.75l11.2-11.2c0.64-0.56,1.25-1.17,1.81-1.81l0,0
				c3.07-3.5,4.94-8.08,4.94-13.1c0-0.43-0.01-0.85-0.04-1.28l9.62,9.62c-0.36,3.52-1.6,6.78-3.48,9.57
				c-0.74,1.1-1.59,2.12-2.52,3.06l-0.09,0.09l-6.36,6.36l-3.27,3.27l-12.05,12.05c-0.17,0.16-0.34,0.33-0.51,0.51
				c-1.99,2.11-3.2,4.95-3.2,8.08c0,1.04,0.14,2.06,0.39,3.02c0.23,0.88,0.56,1.72,0.98,2.51c0.85,1.6,2.06,2.98,3.52,4.04
				c-4.1-1.21-7.52-4-9.54-7.68c-0.25-0.46-0.47-0.94-0.68-1.43c-0.29-0.69-0.55-1.41-0.75-2.14c-0.02-0.05-0.03-0.1-0.04-0.15
				C884.59,727.75,884.35,726.09,884.35,724.37z"/>
			<path class="st0" d="M874.73,697.74l4.15-4.15l2.44-2.44l12.6-12.6h19.08c-0.89,10.42-9.37,18.67-19.9,19.19H874.73z"/>
		</g>
	</g>
	<g id="_x3C_Grid_Repeat_x3E__00000183961255464064467400000010858744488621185715_">
		<g>
			<path class="st0" d="M1158.27,694.91c0,4.85-1.86,9.27-4.9,12.58l-1.1,1.1l-4.75,4.75l-11.2,11.2c-0.64,0.56-1.25,1.17-1.81,1.81
				l0,0c-3.07,3.5-4.94,8.08-4.94,13.1c0,0.43,0.02,0.85,0.04,1.28l-9.62-9.62c0.36-3.52,1.6-6.78,3.48-9.57
				c0.74-1.1,1.59-2.12,2.52-3.06l0.09-0.09l6.36-6.36l3.27-3.27l12.05-12.05c0.17-0.16,0.34-0.33,0.51-0.51
				c1.99-2.11,3.2-4.95,3.2-8.08c0-1.04-0.14-2.06-0.39-3.02c-0.23-0.88-0.56-1.72-0.98-2.51c-0.85-1.6-2.06-2.98-3.52-4.04
				c4.1,1.21,7.52,4,9.54,7.68c0.25,0.46,0.47,0.94,0.68,1.43c0.29,0.69,0.55,1.41,0.75,2.14c0.02,0.05,0.03,0.1,0.04,0.15
				C1158.04,691.53,1158.27,693.19,1158.27,694.91z"/>
			<path class="st0" d="M1167.89,721.53l-4.15,4.15l-2.44,2.44l-12.6,12.6h-19.08c0.89-10.42,9.37-18.67,19.9-19.19H1167.89z"/>
		</g>
	</g>
	<g id="_x3C_Grid_Repeat_x3E__00000065769446448826655820000011949338185092883587_">
		<g>
			<path class="st0" d="M1374.87,724.37c0-4.85,1.86-9.27,4.9-12.58l1.1-1.1l4.75-4.75l11.2-11.2c0.64-0.56,1.25-1.17,1.81-1.81l0,0
				c3.07-3.5,4.94-8.08,4.94-13.1c0-0.43-0.02-0.85-0.04-1.28l9.62,9.62c-0.36,3.52-1.6,6.78-3.48,9.57
				c-0.74,1.1-1.59,2.12-2.52,3.06l-0.09,0.09l-6.36,6.36l-3.27,3.27l-12.05,12.05c-0.17,0.16-0.34,0.33-0.51,0.51
				c-1.99,2.11-3.2,4.95-3.2,8.08c0,1.04,0.13,2.06,0.39,3.02c0.23,0.88,0.56,1.72,0.98,2.51c0.85,1.6,2.06,2.98,3.52,4.04
				c-4.1-1.21-7.52-4-9.54-7.68c-0.25-0.46-0.47-0.94-0.68-1.43c-0.29-0.69-0.55-1.41-0.75-2.14c-0.02-0.05-0.03-0.1-0.04-0.15
				C1375.1,727.75,1374.87,726.09,1374.87,724.37z"/>
			<path class="st0" d="M1365.25,697.74l4.15-4.15l2.44-2.44l12.6-12.6h19.08c-0.89,10.42-9.37,18.67-19.9,19.19H1365.25z"/>
		</g>
	</g>
	<g id="_x3C_Grid_Repeat_x3E__00000102505589316493428790000010004315063214000041_">
		<g>
			<path class="st0" d="M1648.79,694.91c0,4.85-1.86,9.27-4.9,12.58l-1.1,1.1l-4.75,4.75l-11.2,11.2c-0.64,0.56-1.25,1.17-1.81,1.81
				l0,0c-3.07,3.5-4.94,8.08-4.94,13.1c0,0.43,0.02,0.85,0.04,1.28l-9.62-9.62c0.36-3.52,1.6-6.78,3.48-9.57
				c0.74-1.1,1.59-2.12,2.52-3.06l0.09-0.09l6.36-6.36l3.27-3.27l12.05-12.05c0.17-0.16,0.34-0.33,0.51-0.51
				c1.99-2.11,3.2-4.95,3.2-8.08c0-1.04-0.14-2.06-0.39-3.02c-0.23-0.88-0.56-1.72-0.98-2.51c-0.85-1.6-2.06-2.98-3.52-4.04
				c4.1,1.21,7.52,4,9.54,7.68c0.25,0.46,0.47,0.94,0.68,1.43c0.29,0.69,0.55,1.41,0.75,2.14c0.02,0.05,0.03,0.1,0.04,0.15
				C1648.55,691.53,1648.79,693.19,1648.79,694.91z"/>
			<path class="st0" d="M1658.41,721.53l-4.15,4.15l-2.44,2.44l-12.6,12.6h-19.08c0.89-10.42,9.37-18.67,19.9-19.19H1658.41z"/>
		</g>
	</g>
	<g id="_x3C_Grid_Repeat_x3E__00000043417052236976715280000006280559488673985197_">
		<g>
			<path class="st0" d="M1865.38,724.37c0-4.85,1.86-9.27,4.9-12.58l1.1-1.1l4.75-4.75l11.2-11.2c0.64-0.56,1.25-1.17,1.81-1.81l0,0
				c3.07-3.5,4.94-8.08,4.94-13.1c0-0.43-0.02-0.85-0.04-1.28l9.62,9.62c-0.36,3.52-1.6,6.78-3.48,9.57
				c-0.74,1.1-1.59,2.12-2.52,3.06l-0.09,0.09l-6.36,6.36l-3.27,3.27l-12.05,12.05c-0.17,0.16-0.34,0.33-0.51,0.51
				c-1.99,2.11-3.2,4.95-3.2,8.08c0,1.04,0.13,2.06,0.39,3.02c0.23,0.88,0.56,1.72,0.98,2.51c0.85,1.6,2.06,2.98,3.52,4.04
				c-4.1-1.21-7.52-4-9.54-7.68c-0.25-0.46-0.47-0.94-0.68-1.43c-0.29-0.69-0.55-1.41-0.75-2.14c-0.02-0.05-0.03-0.1-0.04-0.15
				C1865.61,727.75,1865.38,726.09,1865.38,724.37z"/>
			<path class="st0" d="M1855.76,697.74l4.15-4.15l2.44-2.44l12.6-12.6h19.08c-0.89,10.42-9.37,18.67-19.9,19.19H1855.76z"/>
		</g>
	</g>
	<g id="_x3C_Grid_Repeat_x3E__00000170275956197942570550000009340960288188415656_">
		<g>
			<path class="st0" d="M54.62,779.72c0,4.85-1.86,9.27-4.9,12.58l-1.1,1.1l-4.75,4.75l-11.2,11.2c-0.64,0.56-1.25,1.17-1.81,1.81
				l0,0c-3.07,3.5-4.94,8.08-4.94,13.1c0,0.43,0.01,0.85,0.04,1.28l-9.62-9.62c0.36-3.52,1.6-6.78,3.48-9.57
				c0.74-1.1,1.59-2.12,2.52-3.06l0.09-0.09l6.36-6.36l3.27-3.27l12.05-12.05c0.17-0.16,0.34-0.33,0.51-0.51
				c1.99-2.11,3.2-4.95,3.2-8.08c0-1.04-0.13-2.06-0.39-3.02c-0.23-0.88-0.56-1.72-0.98-2.51c-0.85-1.6-2.06-2.98-3.52-4.04
				c4.1,1.21,7.52,4,9.54,7.68c0.25,0.46,0.47,0.94,0.68,1.43c0.29,0.69,0.55,1.41,0.75,2.14c0.01,0.05,0.03,0.1,0.04,0.15
				C54.39,776.35,54.62,778.01,54.62,779.72z"/>
			<path class="st0" d="M64.24,806.35l-4.15,4.15l-2.44,2.44l-12.6,12.6H25.96c0.89-10.42,9.37-18.67,19.9-19.19H64.24z"/>
		</g>
	</g>
	<g id="_x3C_Grid_Repeat_x3E__00000172416533890358902560000009932122162559133615_">
		<g>
			<path class="st0" d="M271.21,809.19c0-4.85,1.86-9.27,4.9-12.58l1.1-1.1l4.75-4.75l11.2-11.2c0.64-0.56,1.25-1.17,1.81-1.81l0,0
				c3.07-3.5,4.94-8.08,4.94-13.1c0-0.43-0.01-0.85-0.04-1.28l9.62,9.62c-0.36,3.52-1.6,6.78-3.48,9.57
				c-0.74,1.1-1.59,2.12-2.52,3.06l-0.09,0.09l-6.36,6.36l-3.27,3.27l-12.05,12.05c-0.17,0.16-0.34,0.33-0.51,0.51
				c-1.99,2.11-3.2,4.95-3.2,8.08c0,1.04,0.13,2.06,0.39,3.02c0.23,0.88,0.56,1.72,0.98,2.51c0.85,1.6,2.06,2.98,3.52,4.04
				c-4.1-1.21-7.52-4-9.54-7.68c-0.25-0.46-0.47-0.94-0.68-1.43c-0.29-0.69-0.55-1.41-0.75-2.14c-0.01-0.05-0.03-0.1-0.04-0.15
				C271.45,812.57,271.21,810.9,271.21,809.19z"/>
			<path class="st0" d="M261.59,782.56l4.15-4.15l2.44-2.44l12.6-12.6h19.08c-0.89,10.42-9.37,18.67-19.9,19.19H261.59z"/>
		</g>
	</g>
	<g id="_x3C_Grid_Repeat_x3E__00000128457320342363663040000002201911334764089741_">
		<g>
			<path class="st0" d="M545.13,779.72c0,4.85-1.86,9.27-4.9,12.58l-1.1,1.1l-4.75,4.75l-11.2,11.2c-0.64,0.56-1.25,1.17-1.81,1.81
				l0,0c-3.07,3.5-4.94,8.08-4.94,13.1c0,0.43,0.02,0.85,0.04,1.28l-9.62-9.62c0.36-3.52,1.6-6.78,3.48-9.57
				c0.74-1.1,1.59-2.12,2.52-3.06l0.09-0.09l6.36-6.36l3.27-3.27l12.05-12.05c0.17-0.16,0.34-0.33,0.51-0.51
				c1.99-2.11,3.2-4.95,3.2-8.08c0-1.04-0.13-2.06-0.39-3.02c-0.23-0.88-0.56-1.72-0.98-2.51c-0.85-1.6-2.06-2.98-3.52-4.04
				c4.1,1.21,7.52,4,9.54,7.68c0.25,0.46,0.47,0.94,0.68,1.43c0.29,0.69,0.55,1.41,0.75,2.14c0.02,0.05,0.03,0.1,0.04,0.15
				C544.9,776.35,545.13,778.01,545.13,779.72z"/>
			<path class="st0" d="M554.75,806.35l-4.16,4.15l-2.44,2.44l-12.6,12.6h-19.08c0.89-10.42,9.37-18.67,19.9-19.19H554.75z"/>
		</g>
	</g>
	<g id="_x3C_Grid_Repeat_x3E__00000103238580836443691950000017856714831100101004_">
		<g>
			<path class="st0" d="M761.73,809.19c0-4.85,1.86-9.27,4.9-12.58l1.1-1.1l4.75-4.75l11.2-11.2c0.64-0.56,1.25-1.17,1.81-1.81l0,0
				c3.07-3.5,4.94-8.08,4.94-13.1c0-0.43-0.02-0.85-0.04-1.28l9.62,9.62c-0.36,3.52-1.6,6.78-3.48,9.57
				c-0.74,1.1-1.59,2.12-2.52,3.06l-0.09,0.09l-6.36,6.36l-3.27,3.27l-12.05,12.05c-0.17,0.16-0.34,0.33-0.51,0.51
				c-1.99,2.11-3.2,4.95-3.2,8.08c0,1.04,0.13,2.06,0.39,3.02c0.23,0.88,0.56,1.72,0.98,2.51c0.85,1.6,2.06,2.98,3.52,4.04
				c-4.1-1.21-7.52-4-9.54-7.68c-0.25-0.46-0.47-0.94-0.68-1.43c-0.29-0.69-0.55-1.41-0.75-2.14c-0.01-0.05-0.03-0.1-0.04-0.15
				C761.96,812.57,761.73,810.9,761.73,809.19z"/>
			<path class="st0" d="M752.11,782.56l4.15-4.15l2.44-2.44l12.6-12.6h19.08c-0.89,10.42-9.37,18.67-19.9,19.19H752.11z"/>
		</g>
	</g>
	<g id="_x3C_Grid_Repeat_x3E__00000107568289183535273260000012591708700853983636_">
		<g>
			<path class="st0" d="M1035.65,779.72c0,4.85-1.86,9.27-4.9,12.58l-1.1,1.1l-4.75,4.75l-11.2,11.2c-0.64,0.56-1.25,1.17-1.81,1.81
				l0,0c-3.07,3.5-4.94,8.08-4.94,13.1c0,0.43,0.01,0.85,0.04,1.28l-9.62-9.62c0.36-3.52,1.6-6.78,3.48-9.57
				c0.74-1.1,1.59-2.12,2.52-3.06l0.09-0.09l6.36-6.36l3.27-3.27l12.05-12.05c0.18-0.16,0.34-0.33,0.51-0.51
				c1.99-2.11,3.2-4.95,3.2-8.08c0-1.04-0.13-2.06-0.39-3.02c-0.23-0.88-0.56-1.72-0.98-2.51c-0.85-1.6-2.06-2.98-3.52-4.04
				c4.1,1.21,7.52,4,9.54,7.68c0.25,0.46,0.47,0.94,0.68,1.43c0.29,0.69,0.55,1.41,0.75,2.14c0.02,0.05,0.03,0.1,0.04,0.15
				C1035.41,776.35,1035.65,778.01,1035.65,779.72z"/>
			<path class="st0" d="M1045.27,806.35l-4.15,4.15l-2.44,2.44l-12.6,12.6h-19.08c0.89-10.42,9.37-18.67,19.9-19.19H1045.27z"/>
		</g>
	</g>
	<g id="_x3C_Grid_Repeat_x3E__00000056387724214962951720000017334327295100268969_">
		<g>
			<path class="st0" d="M1252.24,809.19c0-4.85,1.86-9.27,4.9-12.58l1.1-1.1l4.75-4.75l11.2-11.2c0.64-0.56,1.25-1.17,1.81-1.81l0,0
				c3.07-3.5,4.94-8.08,4.94-13.1c0-0.43-0.02-0.85-0.04-1.28l9.62,9.62c-0.36,3.52-1.6,6.78-3.48,9.57
				c-0.74,1.1-1.59,2.12-2.52,3.06l-0.09,0.09l-6.36,6.36l-3.27,3.27l-12.05,12.05c-0.17,0.16-0.34,0.33-0.51,0.51
				c-1.99,2.11-3.2,4.95-3.2,8.08c0,1.04,0.14,2.06,0.39,3.02c0.23,0.88,0.56,1.72,0.98,2.51c0.85,1.6,2.06,2.98,3.52,4.04
				c-4.1-1.21-7.52-4-9.54-7.68c-0.25-0.46-0.47-0.94-0.68-1.43c-0.29-0.69-0.55-1.41-0.75-2.14c-0.02-0.05-0.03-0.1-0.04-0.15
				C1252.47,812.57,1252.24,810.9,1252.24,809.19z"/>
			<path class="st0" d="M1242.62,782.56l4.15-4.15l2.44-2.44l12.6-12.6h19.08c-0.89,10.42-9.37,18.67-19.9,19.19H1242.62z"/>
		</g>
	</g>
	<g id="_x3C_Grid_Repeat_x3E__00000084528589411136360430000002167459265275752067_">
		<g>
			<path class="st0" d="M1526.16,779.72c0,4.85-1.86,9.27-4.9,12.58l-1.1,1.1l-4.75,4.75l-11.2,11.2c-0.64,0.56-1.25,1.17-1.81,1.81
				l0,0c-3.07,3.5-4.94,8.08-4.94,13.1c0,0.43,0.02,0.85,0.04,1.28l-9.62-9.62c0.36-3.52,1.6-6.78,3.48-9.57
				c0.74-1.1,1.59-2.12,2.52-3.06l0.09-0.09l6.36-6.36l3.27-3.27l12.05-12.05c0.18-0.16,0.34-0.33,0.51-0.51
				c1.99-2.11,3.2-4.95,3.2-8.08c0-1.04-0.13-2.06-0.39-3.02c-0.23-0.88-0.56-1.72-0.98-2.51c-0.85-1.6-2.06-2.98-3.52-4.04
				c4.1,1.21,7.52,4,9.54,7.68c0.25,0.46,0.47,0.94,0.68,1.43c0.29,0.69,0.55,1.41,0.75,2.14c0.02,0.05,0.03,0.1,0.04,0.15
				C1525.93,776.35,1526.16,778.01,1526.16,779.72z"/>
			<path class="st0" d="M1535.78,806.35l-4.15,4.15l-2.44,2.44l-12.6,12.6h-19.08c0.89-10.42,9.37-18.67,19.9-19.19H1535.78z"/>
		</g>
	</g>
	<g id="_x3C_Grid_Repeat_x3E__00000121973376502568544420000007738301605186704567_">
		<g>
			<path class="st0" d="M1742.75,809.19c0-4.85,1.86-9.27,4.9-12.58l1.1-1.1l4.75-4.75l11.2-11.2c0.64-0.56,1.25-1.17,1.81-1.81l0,0
				c3.07-3.5,4.94-8.08,4.94-13.1c0-0.43-0.02-0.85-0.04-1.28l9.62,9.62c-0.36,3.52-1.6,6.78-3.48,9.57
				c-0.74,1.1-1.59,2.12-2.52,3.06l-0.09,0.09l-6.36,6.36l-3.27,3.27l-12.05,12.05c-0.17,0.16-0.34,0.33-0.51,0.51
				c-1.99,2.11-3.2,4.95-3.2,8.08c0,1.04,0.14,2.06,0.39,3.02c0.23,0.88,0.56,1.72,0.98,2.51c0.85,1.6,2.06,2.98,3.52,4.04
				c-4.1-1.21-7.52-4-9.54-7.68c-0.25-0.46-0.47-0.94-0.68-1.43c-0.29-0.69-0.55-1.41-0.75-2.14c-0.02-0.05-0.03-0.1-0.04-0.15
				C1742.98,812.57,1742.75,810.9,1742.75,809.19z"/>
			<path class="st0" d="M1733.13,782.56l4.16-4.15l2.44-2.44l12.6-12.6h19.08c-0.89,10.42-9.37,18.67-19.9,19.19H1733.13z"/>
		</g>
	</g>
	<g id="_x3C_Grid_Repeat_x3E__00000174572042380064701700000003697741963186921901_">
		<g>
			<path class="st0" d="M177.25,864.54c0,4.85-1.86,9.27-4.9,12.58l-1.1,1.1l-4.75,4.75l-11.2,11.2c-0.64,0.56-1.25,1.17-1.81,1.81
				l0,0c-3.07,3.5-4.94,8.08-4.94,13.1c0,0.43,0.01,0.85,0.04,1.28l-9.62-9.62c0.36-3.52,1.6-6.78,3.48-9.57
				c0.74-1.1,1.59-2.12,2.52-3.06l0.09-0.09l6.36-6.36l3.27-3.27l12.05-12.05c0.17-0.16,0.34-0.33,0.51-0.51
				c1.99-2.11,3.2-4.95,3.2-8.08c0-1.04-0.13-2.06-0.39-3.02c-0.23-0.88-0.56-1.72-0.98-2.51c-0.85-1.6-2.06-2.98-3.52-4.04
				c4.1,1.21,7.52,4,9.54,7.68c0.25,0.46,0.47,0.94,0.68,1.43c0.29,0.69,0.55,1.41,0.75,2.14c0.01,0.05,0.03,0.1,0.04,0.15
				C177.02,861.17,177.25,862.83,177.25,864.54z"/>
			<path class="st0" d="M186.87,891.17l-4.15,4.15l-2.44,2.44l-12.6,12.6h-19.08c0.89-10.42,9.37-18.67,19.9-19.19H186.87z"/>
		</g>
	</g>
	<g id="_x3C_Grid_Repeat_x3E__00000041992335004425866380000012161894113714739364_">
		<g>
			<path class="st0" d="M393.84,894.01c0-4.85,1.86-9.27,4.9-12.58l1.1-1.1l4.75-4.75l11.2-11.2c0.64-0.56,1.25-1.17,1.81-1.81l0,0
				c3.07-3.5,4.94-8.08,4.94-13.1c0-0.43-0.01-0.85-0.04-1.28l9.62,9.62c-0.36,3.52-1.6,6.78-3.48,9.57
				c-0.74,1.1-1.59,2.12-2.52,3.06l-0.09,0.09l-6.36,6.36l-3.27,3.27l-12.05,12.05c-0.17,0.16-0.34,0.33-0.51,0.51
				c-1.99,2.11-3.2,4.95-3.2,8.08c0,1.04,0.13,2.06,0.39,3.02c0.23,0.88,0.56,1.72,0.98,2.51c0.85,1.6,2.06,2.98,3.52,4.04
				c-4.1-1.21-7.52-4-9.54-7.68c-0.25-0.46-0.47-0.94-0.68-1.43c-0.29-0.69-0.55-1.41-0.75-2.14c-0.01-0.05-0.03-0.1-0.04-0.15
				C394.07,897.38,393.84,895.72,393.84,894.01z"/>
			<path class="st0" d="M384.22,867.38l4.15-4.15l2.44-2.44l12.6-12.6h19.08c-0.89,10.42-9.37,18.67-19.9,19.19H384.22z"/>
		</g>
	</g>
	<g id="_x3C_Grid_Repeat_x3E__00000029005908386186226770000017767188966584031143_">
		<g>
			<path class="st0" d="M667.76,864.54c0,4.85-1.86,9.27-4.9,12.58l-1.1,1.1l-4.75,4.75l-11.2,11.2c-0.64,0.56-1.25,1.17-1.81,1.81
				l0,0c-3.07,3.5-4.94,8.08-4.94,13.1c0,0.43,0.02,0.85,0.04,1.28l-9.62-9.62c0.36-3.52,1.6-6.78,3.48-9.57
				c0.74-1.1,1.59-2.12,2.52-3.06l0.09-0.09l6.36-6.36l3.27-3.27l12.05-12.05c0.17-0.16,0.34-0.33,0.51-0.51
				c1.99-2.11,3.2-4.95,3.2-8.08c0-1.04-0.13-2.06-0.39-3.02c-0.23-0.88-0.56-1.72-0.98-2.51c-0.85-1.6-2.06-2.98-3.52-4.04
				c4.1,1.21,7.52,4,9.54,7.68c0.25,0.46,0.47,0.94,0.68,1.43c0.29,0.69,0.55,1.41,0.75,2.14c0.01,0.05,0.03,0.1,0.04,0.15
				C667.53,861.17,667.76,862.83,667.76,864.54z"/>
			<path class="st0" d="M677.38,891.17l-4.15,4.15l-2.44,2.44l-12.6,12.6H639.1c0.89-10.42,9.37-18.67,19.9-19.19H677.38z"/>
		</g>
	</g>
	<g id="_x3C_Grid_Repeat_x3E__00000060005879381263736310000014000107757332312476_">
		<g>
			<path class="st0" d="M884.35,894.01c0-4.85,1.86-9.27,4.9-12.58l1.1-1.1l4.75-4.75l11.2-11.2c0.64-0.56,1.25-1.17,1.81-1.81l0,0
				c3.07-3.5,4.94-8.08,4.94-13.1c0-0.43-0.01-0.85-0.04-1.28l9.62,9.62c-0.36,3.52-1.6,6.78-3.48,9.57
				c-0.74,1.1-1.59,2.12-2.52,3.06l-0.09,0.09l-6.36,6.36l-3.27,3.27l-12.05,12.05c-0.17,0.16-0.34,0.33-0.51,0.51
				c-1.99,2.11-3.2,4.95-3.2,8.08c0,1.04,0.14,2.06,0.39,3.02c0.23,0.88,0.56,1.72,0.98,2.51c0.85,1.6,2.06,2.98,3.52,4.04
				c-4.1-1.21-7.52-4-9.54-7.68c-0.25-0.46-0.47-0.94-0.68-1.43c-0.29-0.69-0.55-1.41-0.75-2.14c-0.02-0.05-0.03-0.1-0.04-0.15
				C884.59,897.38,884.35,895.72,884.35,894.01z"/>
			<path class="st0" d="M874.73,867.38l4.15-4.15l2.44-2.44l12.6-12.6h19.08c-0.89,10.42-9.37,18.67-19.9,19.19H874.73z"/>
		</g>
	</g>
	<g id="_x3C_Grid_Repeat_x3E__00000002358180869573166110000018254219576908518319_">
		<g>
			<path class="st0" d="M1158.27,864.54c0,4.85-1.86,9.27-4.9,12.58l-1.1,1.1l-4.75,4.75l-11.2,11.2c-0.64,0.56-1.25,1.17-1.81,1.81
				l0,0c-3.07,3.5-4.94,8.08-4.94,13.1c0,0.43,0.02,0.85,0.04,1.28l-9.62-9.62c0.36-3.52,1.6-6.78,3.48-9.57
				c0.74-1.1,1.59-2.12,2.52-3.06l0.09-0.09l6.36-6.36l3.27-3.27l12.05-12.05c0.17-0.16,0.34-0.33,0.51-0.51
				c1.99-2.11,3.2-4.95,3.2-8.08c0-1.04-0.14-2.06-0.39-3.02c-0.23-0.88-0.56-1.72-0.98-2.51c-0.85-1.6-2.06-2.98-3.52-4.04
				c4.1,1.21,7.52,4,9.54,7.68c0.25,0.46,0.47,0.94,0.68,1.43c0.29,0.69,0.55,1.41,0.75,2.14c0.02,0.05,0.03,0.1,0.04,0.15
				C1158.04,861.17,1158.27,862.83,1158.27,864.54z"/>
			<path class="st0" d="M1167.89,891.17l-4.15,4.15l-2.44,2.44l-12.6,12.6h-19.08c0.89-10.42,9.37-18.67,19.9-19.19H1167.89z"/>
		</g>
	</g>
	<g id="_x3C_Grid_Repeat_x3E__00000018941139140124548230000004892729300921351864_">
		<g>
			<path class="st0" d="M1374.87,894.01c0-4.85,1.86-9.27,4.9-12.58l1.1-1.1l4.75-4.75l11.2-11.2c0.64-0.56,1.25-1.17,1.81-1.81l0,0
				c3.07-3.5,4.94-8.08,4.94-13.1c0-0.43-0.02-0.85-0.04-1.28l9.62,9.62c-0.36,3.52-1.6,6.78-3.48,9.57
				c-0.74,1.1-1.59,2.12-2.52,3.06l-0.09,0.09l-6.36,6.36l-3.27,3.27l-12.05,12.05c-0.17,0.16-0.34,0.33-0.51,0.51
				c-1.99,2.11-3.2,4.95-3.2,8.08c0,1.04,0.13,2.06,0.39,3.02c0.23,0.88,0.56,1.72,0.98,2.51c0.85,1.6,2.06,2.98,3.52,4.04
				c-4.1-1.21-7.52-4-9.54-7.68c-0.25-0.46-0.47-0.94-0.68-1.43c-0.29-0.69-0.55-1.41-0.75-2.14c-0.02-0.05-0.03-0.1-0.04-0.15
				C1375.1,897.38,1374.87,895.72,1374.87,894.01z"/>
			<path class="st0" d="M1365.25,867.38l4.15-4.15l2.44-2.44l12.6-12.6h19.08c-0.89,10.42-9.37,18.67-19.9,19.19H1365.25z"/>
		</g>
	</g>
	<g id="_x3C_Grid_Repeat_x3E__00000096775792603407519100000012220212311511476407_">
		<g>
			<path class="st0" d="M1648.79,864.54c0,4.85-1.86,9.27-4.9,12.58l-1.1,1.1l-4.75,4.75l-11.2,11.2c-0.64,0.56-1.25,1.17-1.81,1.81
				l0,0c-3.07,3.5-4.94,8.08-4.94,13.1c0,0.43,0.02,0.85,0.04,1.28l-9.62-9.62c0.36-3.52,1.6-6.78,3.48-9.57
				c0.74-1.1,1.59-2.12,2.52-3.06l0.09-0.09l6.36-6.36l3.27-3.27l12.05-12.05c0.17-0.16,0.34-0.33,0.51-0.51
				c1.99-2.11,3.2-4.95,3.2-8.08c0-1.04-0.14-2.06-0.39-3.02c-0.23-0.88-0.56-1.72-0.98-2.51c-0.85-1.6-2.06-2.98-3.52-4.04
				c4.1,1.21,7.52,4,9.54,7.68c0.25,0.46,0.47,0.94,0.68,1.43c0.29,0.69,0.55,1.41,0.75,2.14c0.02,0.05,0.03,0.1,0.04,0.15
				C1648.55,861.17,1648.79,862.83,1648.79,864.54z"/>
			<path class="st0" d="M1658.41,891.17l-4.15,4.15l-2.44,2.44l-12.6,12.6h-19.08c0.89-10.42,9.37-18.67,19.9-19.19H1658.41z"/>
		</g>
	</g>
	<g id="_x3C_Grid_Repeat_x3E__00000120550314335707743590000004064753247007454867_">
		<g>
			<path class="st0" d="M1865.38,894.01c0-4.85,1.86-9.27,4.9-12.58l1.1-1.1l4.75-4.75l11.2-11.2c0.64-0.56,1.25-1.17,1.81-1.81l0,0
				c3.07-3.5,4.94-8.08,4.94-13.1c0-0.43-0.02-0.85-0.04-1.28l9.62,9.62c-0.36,3.52-1.6,6.78-3.48,9.57
				c-0.74,1.1-1.59,2.12-2.52,3.06l-0.09,0.09l-6.36,6.36l-3.27,3.27l-12.05,12.05c-0.17,0.16-0.34,0.33-0.51,0.51
				c-1.99,2.11-3.2,4.95-3.2,8.08c0,1.04,0.13,2.06,0.39,3.02c0.23,0.88,0.56,1.72,0.98,2.51c0.85,1.6,2.06,2.98,3.52,4.04
				c-4.1-1.21-7.52-4-9.54-7.68c-0.25-0.46-0.47-0.94-0.68-1.43c-0.29-0.69-0.55-1.41-0.75-2.14c-0.02-0.05-0.03-0.1-0.04-0.15
				C1865.61,897.38,1865.38,895.72,1865.38,894.01z"/>
			<path class="st0" d="M1855.76,867.38l4.15-4.15l2.44-2.44l12.6-12.6h19.08c-0.89,10.42-9.37,18.67-19.9,19.19H1855.76z"/>
		</g>
	</g>
	<g id="_x3C_Grid_Repeat_x3E__00000014615124135792471540000014778189384854011323_">
		<g>
			<path class="st0" d="M54.62,949.36c0,4.85-1.86,9.27-4.9,12.58l-1.1,1.1l-4.75,4.75l-11.2,11.2c-0.64,0.56-1.25,1.17-1.81,1.81
				l0,0c-3.07,3.5-4.94,8.08-4.94,13.1c0,0.43,0.01,0.85,0.04,1.28l-9.62-9.62c0.36-3.52,1.6-6.78,3.48-9.57
				c0.74-1.1,1.59-2.12,2.52-3.06l0.09-0.09l6.36-6.36l3.27-3.27l12.05-12.05c0.17-0.16,0.34-0.33,0.51-0.51
				c1.99-2.11,3.2-4.95,3.2-8.08c0-1.04-0.13-2.06-0.39-3.02c-0.23-0.88-0.56-1.72-0.98-2.51c-0.85-1.6-2.06-2.98-3.52-4.04
				c4.1,1.21,7.52,4,9.54,7.68c0.25,0.46,0.47,0.94,0.68,1.43c0.29,0.69,0.55,1.41,0.75,2.14c0.01,0.05,0.03,0.1,0.04,0.15
				C54.39,945.98,54.62,947.65,54.62,949.36z"/>
			<path class="st0" d="M64.24,975.99l-4.15,4.15l-2.44,2.44l-12.6,12.6H25.96c0.89-10.42,9.37-18.67,19.9-19.19H64.24z"/>
		</g>
	</g>
	<g id="_x3C_Grid_Repeat_x3E__00000135662564263515817960000009038271846533557379_">
		<g>
			<path class="st0" d="M271.21,978.83c0-4.85,1.86-9.27,4.9-12.58l1.1-1.1l4.75-4.75l11.2-11.2c0.64-0.56,1.25-1.17,1.81-1.81l0,0
				c3.07-3.5,4.94-8.08,4.94-13.1c0-0.43-0.01-0.85-0.04-1.28l9.62,9.62c-0.36,3.52-1.6,6.78-3.48,9.57
				c-0.74,1.1-1.59,2.12-2.52,3.06l-0.09,0.09l-6.36,6.36l-3.27,3.27l-12.05,12.05c-0.17,0.16-0.34,0.33-0.51,0.51
				c-1.99,2.11-3.2,4.95-3.2,8.08c0,1.04,0.13,2.06,0.39,3.02c0.23,0.88,0.56,1.72,0.98,2.51c0.85,1.6,2.06,2.98,3.52,4.04
				c-4.1-1.21-7.52-4-9.54-7.68c-0.25-0.46-0.47-0.94-0.68-1.43c-0.29-0.69-0.55-1.41-0.75-2.14c-0.01-0.05-0.03-0.1-0.04-0.15
				C271.45,982.2,271.21,980.54,271.21,978.83z"/>
			<path class="st0" d="M261.59,952.2l4.15-4.15l2.44-2.44l12.6-12.6h19.08c-0.89,10.42-9.37,18.67-19.9,19.19H261.59z"/>
		</g>
	</g>
	<g id="_x3C_Grid_Repeat_x3E__00000155853568368591270190000016208146793455093408_">
		<g>
			<path class="st0" d="M545.13,949.36c0,4.85-1.86,9.27-4.9,12.58l-1.1,1.1l-4.75,4.75l-11.2,11.2c-0.64,0.56-1.25,1.17-1.81,1.81
				l0,0c-3.07,3.5-4.94,8.08-4.94,13.1c0,0.43,0.02,0.85,0.04,1.28l-9.62-9.62c0.36-3.52,1.6-6.78,3.48-9.57
				c0.74-1.1,1.59-2.12,2.52-3.06l0.09-0.09l6.36-6.36l3.27-3.27l12.05-12.05c0.17-0.16,0.34-0.33,0.51-0.51
				c1.99-2.11,3.2-4.95,3.2-8.08c0-1.04-0.13-2.06-0.39-3.02c-0.23-0.88-0.56-1.72-0.98-2.51c-0.85-1.6-2.06-2.98-3.52-4.04
				c4.1,1.21,7.52,4,9.54,7.68c0.25,0.46,0.47,0.94,0.68,1.43c0.29,0.69,0.55,1.41,0.75,2.14c0.02,0.05,0.03,0.1,0.04,0.15
				C544.9,945.98,545.13,947.65,545.13,949.36z"/>
			<path class="st0" d="M554.75,975.99l-4.16,4.15l-2.44,2.44l-12.6,12.6h-19.08c0.89-10.42,9.37-18.67,19.9-19.19H554.75z"/>
		</g>
	</g>
	<g id="_x3C_Grid_Repeat_x3E__00000049937554339419442280000015476413099180014478_">
		<g>
			<path class="st0" d="M761.73,978.83c0-4.85,1.86-9.27,4.9-12.58l1.1-1.1l4.75-4.75l11.2-11.2c0.64-0.56,1.25-1.17,1.81-1.81l0,0
				c3.07-3.5,4.94-8.08,4.94-13.1c0-0.43-0.02-0.85-0.04-1.28l9.62,9.62c-0.36,3.52-1.6,6.78-3.48,9.57
				c-0.74,1.1-1.59,2.12-2.52,3.06l-0.09,0.09l-6.36,6.36l-3.27,3.27l-12.05,12.05c-0.17,0.16-0.34,0.33-0.51,0.51
				c-1.99,2.11-3.2,4.95-3.2,8.08c0,1.04,0.13,2.06,0.39,3.02c0.23,0.88,0.56,1.72,0.98,2.51c0.85,1.6,2.06,2.98,3.52,4.04
				c-4.1-1.21-7.52-4-9.54-7.68c-0.25-0.46-0.47-0.94-0.68-1.43c-0.29-0.69-0.55-1.41-0.75-2.14c-0.01-0.05-0.03-0.1-0.04-0.15
				C761.96,982.2,761.73,980.54,761.73,978.83z"/>
			<path class="st0" d="M752.11,952.2l4.15-4.15l2.44-2.44l12.6-12.6h19.08c-0.89,10.42-9.37,18.67-19.9,19.19H752.11z"/>
		</g>
	</g>
	<g id="_x3C_Grid_Repeat_x3E__00000105396241817613698640000009733285709618736279_">
		<g>
			<path class="st0" d="M1035.65,949.36c0,4.85-1.86,9.27-4.9,12.58l-1.1,1.1l-4.75,4.75l-11.2,11.2c-0.64,0.56-1.25,1.17-1.81,1.81
				l0,0c-3.07,3.5-4.94,8.08-4.94,13.1c0,0.43,0.01,0.85,0.04,1.28l-9.62-9.62c0.36-3.52,1.6-6.78,3.48-9.57
				c0.74-1.1,1.59-2.12,2.52-3.06l0.09-0.09l6.36-6.36l3.27-3.27l12.05-12.05c0.18-0.16,0.34-0.33,0.51-0.51
				c1.99-2.11,3.2-4.95,3.2-8.08c0-1.04-0.13-2.06-0.39-3.02c-0.23-0.88-0.56-1.72-0.98-2.51c-0.85-1.6-2.06-2.98-3.52-4.04
				c4.1,1.21,7.52,4,9.54,7.68c0.25,0.46,0.47,0.94,0.68,1.43c0.29,0.69,0.55,1.41,0.75,2.14c0.02,0.05,0.03,0.1,0.04,0.15
				C1035.41,945.98,1035.65,947.65,1035.65,949.36z"/>
			<path class="st0" d="M1045.27,975.99l-4.15,4.15l-2.44,2.44l-12.6,12.6h-19.08c0.89-10.42,9.37-18.67,19.9-19.19H1045.27z"/>
		</g>
	</g>
	<g id="_x3C_Grid_Repeat_x3E__00000145778958785842918170000013316049698034581945_">
		<g>
			<path class="st0" d="M1252.24,978.83c0-4.85,1.86-9.27,4.9-12.58l1.1-1.1l4.75-4.75l11.2-11.2c0.64-0.56,1.25-1.17,1.81-1.81l0,0
				c3.07-3.5,4.94-8.08,4.94-13.1c0-0.43-0.02-0.85-0.04-1.28l9.62,9.62c-0.36,3.52-1.6,6.78-3.48,9.57
				c-0.74,1.1-1.59,2.12-2.52,3.06l-0.09,0.09l-6.36,6.36l-3.27,3.27l-12.05,12.05c-0.17,0.16-0.34,0.33-0.51,0.51
				c-1.99,2.11-3.2,4.95-3.2,8.08c0,1.04,0.14,2.06,0.39,3.02c0.23,0.88,0.56,1.72,0.98,2.51c0.85,1.6,2.06,2.98,3.52,4.04
				c-4.1-1.21-7.52-4-9.54-7.68c-0.25-0.46-0.47-0.94-0.68-1.43c-0.29-0.69-0.55-1.41-0.75-2.14c-0.02-0.05-0.03-0.1-0.04-0.15
				C1252.47,982.2,1252.24,980.54,1252.24,978.83z"/>
			<path class="st0" d="M1242.62,952.2l4.15-4.15l2.44-2.44l12.6-12.6h19.08c-0.89,10.42-9.37,18.67-19.9,19.19H1242.62z"/>
		</g>
	</g>
	<g id="_x3C_Grid_Repeat_x3E__00000137852989896968218830000006883620251531131036_">
		<g>
			<path class="st0" d="M1526.16,949.36c0,4.85-1.86,9.27-4.9,12.58l-1.1,1.1l-4.75,4.75l-11.2,11.2c-0.64,0.56-1.25,1.17-1.81,1.81
				l0,0c-3.07,3.5-4.94,8.08-4.94,13.1c0,0.43,0.02,0.85,0.04,1.28l-9.62-9.62c0.36-3.52,1.6-6.78,3.48-9.57
				c0.74-1.1,1.59-2.12,2.52-3.06l0.09-0.09l6.36-6.36l3.27-3.27l12.05-12.05c0.18-0.16,0.34-0.33,0.51-0.51
				c1.99-2.11,3.2-4.95,3.2-8.08c0-1.04-0.13-2.06-0.39-3.02c-0.23-0.88-0.56-1.72-0.98-2.51c-0.85-1.6-2.06-2.98-3.52-4.04
				c4.1,1.21,7.52,4,9.54,7.68c0.25,0.46,0.47,0.94,0.68,1.43c0.29,0.69,0.55,1.41,0.75,2.14c0.02,0.05,0.03,0.1,0.04,0.15
				C1525.93,945.98,1526.16,947.65,1526.16,949.36z"/>
			<path class="st0" d="M1535.78,975.99l-4.15,4.15l-2.44,2.44l-12.6,12.6h-19.08c0.89-10.42,9.37-18.67,19.9-19.19H1535.78z"/>
		</g>
	</g>
	<g id="_x3C_Grid_Repeat_x3E__00000137842200554462702010000006369967589547845557_">
		<g>
			<path class="st0" d="M1742.75,978.83c0-4.85,1.86-9.27,4.9-12.58l1.1-1.1l4.75-4.75l11.2-11.2c0.64-0.56,1.25-1.17,1.81-1.81l0,0
				c3.07-3.5,4.94-8.08,4.94-13.1c0-0.43-0.02-0.85-0.04-1.28l9.62,9.62c-0.36,3.52-1.6,6.78-3.48,9.57
				c-0.74,1.1-1.59,2.12-2.52,3.06l-0.09,0.09l-6.36,6.36l-3.27,3.27l-12.05,12.05c-0.17,0.16-0.34,0.33-0.51,0.51
				c-1.99,2.11-3.2,4.95-3.2,8.08c0,1.04,0.14,2.06,0.39,3.02c0.23,0.88,0.56,1.72,0.98,2.51c0.85,1.6,2.06,2.98,3.52,4.04
				c-4.1-1.21-7.52-4-9.54-7.68c-0.25-0.46-0.47-0.94-0.68-1.43c-0.29-0.69-0.55-1.41-0.75-2.14c-0.02-0.05-0.03-0.1-0.04-0.15
				C1742.98,982.2,1742.75,980.54,1742.75,978.83z"/>
			<path class="st0" d="M1733.13,952.2l4.16-4.15l2.44-2.44l12.6-12.6h19.08c-0.89,10.42-9.37,18.67-19.9,19.19H1733.13z"/>
		</g>
	</g>
	<g id="_x3C_Grid_Repeat_x3E__00000095324937478360339250000017829890944172163263_">
		<g>
			<path class="st0" d="M177.25,1034.18c0,4.85-1.86,9.27-4.9,12.58l-1.1,1.1l-4.75,4.75l-11.2,11.2c-0.64,0.56-1.25,1.17-1.81,1.81
				l0,0c-3.07,3.5-4.94,8.08-4.94,13.1c0,0.43,0.01,0.85,0.04,1.28l-9.62-9.62c0.36-3.52,1.6-6.78,3.48-9.57
				c0.74-1.1,1.59-2.12,2.52-3.06l0.09-0.09l6.36-6.36l3.27-3.27l12.05-12.05c0.17-0.16,0.34-0.33,0.51-0.51
				c1.99-2.11,3.2-4.95,3.2-8.08c0-1.04-0.13-2.06-0.39-3.02c-0.23-0.88-0.56-1.72-0.98-2.51c-0.85-1.6-2.06-2.98-3.52-4.04
				c4.1,1.21,7.52,4,9.54,7.68c0.25,0.46,0.47,0.94,0.68,1.43c0.29,0.69,0.55,1.41,0.75,2.14c0.01,0.05,0.03,0.1,0.04,0.15
				C177.02,1030.8,177.25,1032.46,177.25,1034.18z"/>
			<path class="st0" d="M186.87,1060.81l-4.15,4.15l-2.44,2.44l-12.6,12.6h-19.08c0.89-10.42,9.37-18.67,19.9-19.19H186.87z"/>
		</g>
	</g>
	<g id="_x3C_Grid_Repeat_x3E__00000022552497333397500600000000187304235462368169_">
		<g>
			<path class="st0" d="M393.84,1063.64c0-4.85,1.86-9.27,4.9-12.58l1.1-1.1l4.75-4.75l11.2-11.2c0.64-0.56,1.25-1.17,1.81-1.81l0,0
				c3.07-3.5,4.94-8.08,4.94-13.1c0-0.43-0.01-0.85-0.04-1.28l9.62,9.62c-0.36,3.52-1.6,6.78-3.48,9.57
				c-0.74,1.1-1.59,2.12-2.52,3.06l-0.09,0.09l-6.36,6.36l-3.27,3.27l-12.05,12.05c-0.17,0.16-0.34,0.33-0.51,0.51
				c-1.99,2.11-3.2,4.95-3.2,8.08c0,1.04,0.13,2.06,0.39,3.02c0.23,0.88,0.56,1.72,0.98,2.51c0.85,1.6,2.06,2.98,3.52,4.04
				c-4.1-1.21-7.52-4-9.54-7.68c-0.25-0.46-0.47-0.94-0.68-1.43c-0.29-0.69-0.55-1.41-0.75-2.14c-0.01-0.05-0.03-0.1-0.04-0.15
				C394.07,1067.02,393.84,1065.36,393.84,1063.64z"/>
			<path class="st0" d="M384.22,1037.02l4.15-4.15l2.44-2.44l12.6-12.6h19.08c-0.89,10.42-9.37,18.67-19.9,19.19H384.22z"/>
		</g>
	</g>
	<g id="_x3C_Grid_Repeat_x3E__00000022528104867111931870000014708008505345946300_">
		<g>
			<path class="st0" d="M667.76,1034.18c0,4.85-1.86,9.27-4.9,12.58l-1.1,1.1l-4.75,4.75l-11.2,11.2c-0.64,0.56-1.25,1.17-1.81,1.81
				l0,0c-3.07,3.5-4.94,8.08-4.94,13.1c0,0.43,0.02,0.85,0.04,1.28l-9.62-9.62c0.36-3.52,1.6-6.78,3.48-9.57
				c0.74-1.1,1.59-2.12,2.52-3.06l0.09-0.09l6.36-6.36l3.27-3.27l12.05-12.05c0.17-0.16,0.34-0.33,0.51-0.51
				c1.99-2.11,3.2-4.95,3.2-8.08c0-1.04-0.13-2.06-0.39-3.02c-0.23-0.88-0.56-1.72-0.98-2.51c-0.85-1.6-2.06-2.98-3.52-4.04
				c4.1,1.21,7.52,4,9.54,7.68c0.25,0.46,0.47,0.94,0.68,1.43c0.29,0.69,0.55,1.41,0.75,2.14c0.01,0.05,0.03,0.1,0.04,0.15
				C667.53,1030.8,667.76,1032.46,667.76,1034.18z"/>
			<path class="st0" d="M677.38,1060.81l-4.15,4.15l-2.44,2.44l-12.6,12.6H639.1c0.89-10.42,9.37-18.67,19.9-19.19H677.38z"/>
		</g>
	</g>
	<g id="_x3C_Grid_Repeat_x3E__00000039122431102716790670000016192090469157951627_">
		<g>
			<path class="st0" d="M884.35,1063.64c0-4.85,1.86-9.27,4.9-12.58l1.1-1.1l4.75-4.75l11.2-11.2c0.64-0.56,1.25-1.17,1.81-1.81l0,0
				c3.07-3.5,4.94-8.08,4.94-13.1c0-0.43-0.01-0.85-0.04-1.28l9.62,9.62c-0.36,3.52-1.6,6.78-3.48,9.57
				c-0.74,1.1-1.59,2.12-2.52,3.06l-0.09,0.09l-6.36,6.36l-3.27,3.27l-12.05,12.05c-0.17,0.16-0.34,0.33-0.51,0.51
				c-1.99,2.11-3.2,4.95-3.2,8.08c0,1.04,0.14,2.06,0.39,3.02c0.23,0.88,0.56,1.72,0.98,2.51c0.85,1.6,2.06,2.98,3.52,4.04
				c-4.1-1.21-7.52-4-9.54-7.68c-0.25-0.46-0.47-0.94-0.68-1.43c-0.29-0.69-0.55-1.41-0.75-2.14c-0.02-0.05-0.03-0.1-0.04-0.15
				C884.59,1067.02,884.35,1065.36,884.35,1063.64z"/>
			<path class="st0" d="M874.73,1037.02l4.15-4.15l2.44-2.44l12.6-12.6h19.08c-0.89,10.42-9.37,18.67-19.9,19.19H874.73z"/>
		</g>
	</g>
	<g id="_x3C_Grid_Repeat_x3E__00000010300865983901234700000004383054728061531779_">
		<g>
			<path class="st0" d="M1158.27,1034.18c0,4.85-1.86,9.27-4.9,12.58l-1.1,1.1l-4.75,4.75l-11.2,11.2
				c-0.64,0.56-1.25,1.17-1.81,1.81l0,0c-3.07,3.5-4.94,8.08-4.94,13.1c0,0.43,0.02,0.85,0.04,1.28l-9.62-9.62
				c0.36-3.52,1.6-6.78,3.48-9.57c0.74-1.1,1.59-2.12,2.52-3.06l0.09-0.09l6.36-6.36l3.27-3.27l12.05-12.05
				c0.17-0.16,0.34-0.33,0.51-0.51c1.99-2.11,3.2-4.95,3.2-8.08c0-1.04-0.14-2.06-0.39-3.02c-0.23-0.88-0.56-1.72-0.98-2.51
				c-0.85-1.6-2.06-2.98-3.52-4.04c4.1,1.21,7.52,4,9.54,7.68c0.25,0.46,0.47,0.94,0.68,1.43c0.29,0.69,0.55,1.41,0.75,2.14
				c0.02,0.05,0.03,0.1,0.04,0.15C1158.04,1030.8,1158.27,1032.46,1158.27,1034.18z"/>
			<path class="st0" d="M1167.89,1060.81l-4.15,4.15l-2.44,2.44l-12.6,12.6h-19.08c0.89-10.42,9.37-18.67,19.9-19.19H1167.89z"/>
		</g>
	</g>
	<g id="_x3C_Grid_Repeat_x3E__00000170958040361120962650000016627197526688313217_">
		<g>
			<path class="st0" d="M1374.87,1063.64c0-4.85,1.86-9.27,4.9-12.58l1.1-1.1l4.75-4.75l11.2-11.2c0.64-0.56,1.25-1.17,1.81-1.81
				l0,0c3.07-3.5,4.94-8.08,4.94-13.1c0-0.43-0.02-0.85-0.04-1.28l9.62,9.62c-0.36,3.52-1.6,6.78-3.48,9.57
				c-0.74,1.1-1.59,2.12-2.52,3.06l-0.09,0.09l-6.36,6.36l-3.27,3.27l-12.05,12.05c-0.17,0.16-0.34,0.33-0.51,0.51
				c-1.99,2.11-3.2,4.95-3.2,8.08c0,1.04,0.13,2.06,0.39,3.02c0.23,0.88,0.56,1.72,0.98,2.51c0.85,1.6,2.06,2.98,3.52,4.04
				c-4.1-1.21-7.52-4-9.54-7.68c-0.25-0.46-0.47-0.94-0.68-1.43c-0.29-0.69-0.55-1.41-0.75-2.14c-0.02-0.05-0.03-0.1-0.04-0.15
				C1375.1,1067.02,1374.87,1065.36,1374.87,1063.64z"/>
			<path class="st0" d="M1365.25,1037.02l4.15-4.15l2.44-2.44l12.6-12.6h19.08c-0.89,10.42-9.37,18.67-19.9,19.19H1365.25z"/>
		</g>
	</g>
	<g id="_x3C_Grid_Repeat_x3E__00000037662924566551374850000002842318045167273389_">
		<g>
			<path class="st0" d="M1648.79,1034.18c0,4.85-1.86,9.27-4.9,12.58l-1.1,1.1l-4.75,4.75l-11.2,11.2
				c-0.64,0.56-1.25,1.17-1.81,1.81l0,0c-3.07,3.5-4.94,8.08-4.94,13.1c0,0.43,0.02,0.85,0.04,1.28l-9.62-9.62
				c0.36-3.52,1.6-6.78,3.48-9.57c0.74-1.1,1.59-2.12,2.52-3.06l0.09-0.09l6.36-6.36l3.27-3.27l12.05-12.05
				c0.17-0.16,0.34-0.33,0.51-0.51c1.99-2.11,3.2-4.95,3.2-8.08c0-1.04-0.14-2.06-0.39-3.02c-0.23-0.88-0.56-1.72-0.98-2.51
				c-0.85-1.6-2.06-2.98-3.52-4.04c4.1,1.21,7.52,4,9.54,7.68c0.25,0.46,0.47,0.94,0.68,1.43c0.29,0.69,0.55,1.41,0.75,2.14
				c0.02,0.05,0.03,0.1,0.04,0.15C1648.55,1030.8,1648.79,1032.46,1648.79,1034.18z"/>
			<path class="st0" d="M1658.41,1060.81l-4.15,4.15l-2.44,2.44l-12.6,12.6h-19.08c0.89-10.42,9.37-18.67,19.9-19.19H1658.41z"/>
		</g>
	</g>
	<g id="_x3C_Grid_Repeat_x3E__00000139988023274527041320000013610699985827676068_">
		<g>
			<path class="st0" d="M1865.38,1063.64c0-4.85,1.86-9.27,4.9-12.58l1.1-1.1l4.75-4.75l11.2-11.2c0.64-0.56,1.25-1.17,1.81-1.81
				l0,0c3.07-3.5,4.94-8.08,4.94-13.1c0-0.43-0.02-0.85-0.04-1.28l9.62,9.62c-0.36,3.52-1.6,6.78-3.48,9.57
				c-0.74,1.1-1.59,2.12-2.52,3.06l-0.09,0.09l-6.36,6.36l-3.27,3.27l-12.05,12.05c-0.17,0.16-0.34,0.33-0.51,0.51
				c-1.99,2.11-3.2,4.95-3.2,8.08c0,1.04,0.13,2.06,0.39,3.02c0.23,0.88,0.56,1.72,0.98,2.51c0.85,1.6,2.06,2.98,3.52,4.04
				c-4.1-1.21-7.52-4-9.54-7.68c-0.25-0.46-0.47-0.94-0.68-1.43c-0.29-0.69-0.55-1.41-0.75-2.14c-0.02-0.05-0.03-0.1-0.04-0.15
				C1865.61,1067.02,1865.38,1065.36,1865.38,1063.64z"/>
			<path class="st0" d="M1855.76,1037.02l4.15-4.15l2.44-2.44l12.6-12.6h19.08c-0.89,10.42-9.37,18.67-19.9,19.19H1855.76z"/>
		</g>
	</g>
</g>
</svg>
